<svg width="52" height="52" viewBox="0 0 52 52" fill="none" xmlns="http://www.w3.org/2000/svg">
<path d="M35.6096 33.2126L32.8448 26.0686L32.2209 24.4857C32.1382 24.2292 32.2164 23.8571 32.41 23.6672L35.7016 20.4388C36.7342 19.426 37.2114 17.4596 36.7774 16.0703C36.6223 15.5893 36.2425 15.2021 35.7646 15.0376C34.3946 14.5875 32.4085 15.0371 31.3758 16.0499L28.0842 19.2782C27.8906 19.4681 27.517 19.5391 27.2622 19.4513L18.6132 15.9048C17.6689 15.5014 16.281 15.7862 15.5496 16.5037L14.1297 17.8963C13.2153 18.793 13.4387 19.9246 14.6379 20.4156L22.247 23.526C22.8413 23.7661 22.953 24.3319 22.4905 24.7856L21.2965 25.9566L19.3603 27.8556C19.1129 28.0983 18.6207 28.3066 18.2798 28.3033L13.3259 28.2659C12.8145 28.2609 12.1929 28.6385 11.9432 29.1155L10.955 31.0344C10.5103 31.8505 10.916 32.8666 11.7974 33.1628L16.4597 33.6129C17.173 33.6731 17.7954 34.3077 17.8418 35.022L18.2013 39.6922C18.4911 40.5686 19.4884 41.0045 20.3341 40.5972L22.2718 39.6464C22.7428 39.4166 23.1431 38.7918 23.148 38.2805L23.2067 33.3267C23.1995 32.9751 23.4173 32.4871 23.6647 32.2444L26.7949 29.1743C27.2575 28.7207 27.7997 28.8431 28.0496 29.4422L31.0117 37.1102C31.4794 38.3187 32.6064 38.564 33.5208 37.6672L34.9407 36.2746C35.6721 35.5572 35.9839 34.1752 35.6096 33.2126Z" fill="white"/>
</svg>
