<svg width="21" height="24" viewBox="0 0 21 24" fill="none" xmlns="http://www.w3.org/2000/svg">
<path d="M-3.6414e-07 8.33055L-3.07324e-07 7.03075C4.3134e-05 6.90014 0.032829 6.77163 0.0953576 6.65697C0.157886 6.54231 0.248161 6.44515 0.357931 6.37438C0.4677 6.30362 0.59346 6.2615 0.723709 6.25188C0.853958 6.24226 0.984541 6.26545 1.10352 6.31932L8.04932 9.46678L8.1543 4.74071L6.06592 3.01708C5.65283 2.68846 5.46875 2.42626 5.46875 1.75731L5.46875 0.88231C5.46429 0.743771 5.49329 0.606198 5.5533 0.48125C5.61331 0.356303 5.70256 0.247662 5.81348 0.164536C5.97021 0.0483253 6.23584 -0.0659324 6.61475 0.0453957L10.0815 1.01317C10.1074 1.02049 10.1333 1.02928 10.1587 1.03905C10.1611 1.03953 10.1636 1.03953 10.166 1.03905C10.1914 1.02896 10.2173 1.02032 10.2437 1.01317L13.7324 0.0444195C14.104 -0.060561 14.3638 0.0541851 14.5166 0.169419C14.6193 0.2468 14.7024 0.347193 14.7592 0.462527C14.816 0.577861 14.845 0.704918 14.8437 0.833482L14.8437 1.75731C14.8437 2.25682 14.6196 2.74169 14.2578 3.02684L12.2046 4.71483L12.2749 9.46678L19.2085 6.3203C19.3274 6.26635 19.458 6.24307 19.5882 6.25259C19.7184 6.26211 19.8442 6.30412 19.954 6.37479C20.0638 6.44546 20.1542 6.54252 20.2168 6.65711C20.2794 6.7717 20.3123 6.90016 20.3125 7.03075L20.3125 8.34471C20.3088 8.52803 20.2639 8.70815 20.181 8.87172C20.0982 9.03529 19.9796 9.1781 19.834 9.28954L12.4121 15.3955L12.4863 18.2163C12.4976 18.4228 12.5015 18.9951 12.5015 19.1274C12.5 21.8257 11.624 23.437 10.1562 23.437C9.69433 23.437 8.83789 23.2524 8.29297 22.0176C7.9707 21.2886 7.80762 20.3159 7.80762 19.1265C7.80762 18.9956 7.81152 18.4248 7.82275 18.2153L7.89795 15.395L0.476074 9.27391C0.331117 9.16238 0.213075 9.0197 0.130672 8.85641C0.0482692 8.69313 0.00361216 8.51341 -3.6414e-07 8.33055Z" fill="#38A993"/>
</svg>
