<svg width="291" height="202" viewBox="0 0 291 202" fill="none" xmlns="http://www.w3.org/2000/svg">
<path d="M290.406 190.158H0V190.303H290.406V190.158Z" fill="#EBEBEB"/>
<path d="M261.307 199.504H242.07V199.649H261.307V199.504Z" fill="#EBEBEB"/>
<path d="M192.375 201.082H187.328V201.227H192.375V201.082Z" fill="#EBEBEB"/>
<path d="M241.49 194.113H230.344V194.258H241.49V194.113Z" fill="#EBEBEB"/>
<path d="M55.554 195.09H30.4688V195.235H55.554V195.09Z" fill="#EBEBEB"/>
<path d="M64.407 195.09H60.7305V195.235H64.407V195.09Z" fill="#EBEBEB"/>
<path d="M130.77 197.539H76.3594V197.684H130.77V197.539Z" fill="#EBEBEB"/>
<path d="M137.651 164.254H25.502C24.6235 164.252 23.7814 163.902 23.1607 163.28C22.54 162.658 22.1914 161.816 22.1914 160.937V3.2874C22.1991 2.41387 22.551 1.57863 23.1709 0.963113C23.7908 0.347592 24.6285 0.0014964 25.502 0H137.651C138.531 0 139.374 0.349409 139.996 0.971362C140.618 1.59331 140.967 2.43686 140.967 3.31644V160.937C140.967 161.817 140.618 162.66 139.996 163.282C139.374 163.904 138.531 164.254 137.651 164.254ZM25.502 0.116163C24.662 0.117701 23.8569 0.45249 23.2634 1.04705C22.6699 1.6416 22.3366 2.44734 22.3366 3.2874V160.937C22.3366 161.777 22.6699 162.583 23.2634 163.178C23.8569 163.772 24.662 164.107 25.502 164.108H137.651C138.492 164.107 139.297 163.772 139.892 163.178C140.486 162.584 140.821 161.778 140.822 160.937V3.2874C140.821 2.4468 140.486 1.64108 139.892 1.04669C139.297 0.452302 138.492 0.117698 137.651 0.116163H25.502Z" fill="#EBEBEB"/>
<path d="M263.288 164.254H151.133C150.254 164.252 149.411 163.902 148.789 163.281C148.168 162.659 147.818 161.816 147.816 160.937V3.2874C147.826 2.41334 148.179 1.57811 148.8 0.96275C149.42 0.347389 150.259 0.00148008 151.133 0H263.288C264.16 0.00302283 264.996 0.349794 265.615 0.965152C266.234 1.58051 266.585 2.41487 266.592 3.2874V160.937C266.592 161.815 266.245 162.657 265.625 163.278C265.006 163.9 264.165 164.251 263.288 164.254ZM151.133 0.116163C150.292 0.117698 149.487 0.452302 148.892 1.04669C148.298 1.64108 147.963 2.4468 147.962 3.2874V160.937C147.963 161.778 148.298 162.584 148.892 163.178C149.487 163.772 150.292 164.107 151.133 164.108H263.288C264.128 164.107 264.934 163.772 265.528 163.178C266.123 162.584 266.457 161.778 266.459 160.937V3.2874C266.457 2.4468 266.123 1.64108 265.528 1.04669C264.934 0.452302 264.128 0.117698 263.288 0.116163H151.133Z" fill="#EBEBEB"/>
<path d="M194.805 78.3163C208.133 78.3163 218.937 67.5117 218.937 54.1835C218.937 40.8554 208.133 30.0508 194.805 30.0508C181.476 30.0508 170.672 40.8554 170.672 54.1835C170.672 67.5117 181.476 78.3163 194.805 78.3163Z" fill="#F5F5F5"/>
<path d="M237.873 49.4267C237.873 48.3839 237.459 47.3837 236.721 46.6463C235.984 45.9089 234.984 45.4946 233.941 45.4946C233.559 45.4935 233.179 45.5503 232.814 45.6631C232.87 45.2627 232.899 44.8592 232.901 44.455C232.904 43.2299 232.635 42.0194 232.114 40.9103C231.594 39.8012 230.835 38.8208 229.892 38.0394C228.948 37.2579 227.843 36.6947 226.657 36.3901C225.47 36.0854 224.231 36.0469 223.028 36.2772C222.207 34.9294 220.97 33.8849 219.504 33.3012C218.038 32.7175 216.421 32.6263 214.899 33.0412C213.376 33.4561 212.03 34.3546 211.062 35.6015C210.095 36.8483 209.559 38.3758 209.535 39.9537H209.413C207.669 40.005 206.014 40.734 204.798 41.9859C203.582 43.2379 202.902 44.9142 202.902 46.6592C202.902 48.4042 203.582 50.0805 204.798 51.3324C206.014 52.5843 207.669 53.3133 209.413 53.3647H234.069C235.09 53.3314 236.059 52.9017 236.769 52.1667C237.479 51.4316 237.875 50.4488 237.873 49.4267Z" fill="#EBEBEB"/>
<path d="M175.76 71.0562C175.76 70.0143 175.347 69.0151 174.61 68.2778C173.874 67.5406 172.876 67.1256 171.834 67.1241C171.44 67.1205 171.048 67.1773 170.672 67.2925C170.851 66.1092 170.771 64.9013 170.439 63.7517C170.106 62.6021 169.529 61.538 168.747 60.6325C167.964 59.727 166.995 59.0016 165.906 58.506C164.817 58.0104 163.633 57.7564 162.436 57.7614C161.922 57.7626 161.408 57.8112 160.903 57.9066C160.079 56.5719 158.845 55.5395 157.386 54.9633C155.927 54.3872 154.321 54.2983 152.808 54.7098C151.294 55.1214 149.954 56.0114 148.988 57.247C148.021 58.4826 147.48 59.9975 147.445 61.5657H147.324C145.579 61.6171 143.924 62.346 142.708 63.598C141.492 64.8499 140.812 66.5262 140.812 68.2712C140.812 70.0162 141.492 71.6925 142.708 72.9444C143.924 74.1964 145.579 74.9253 147.324 74.9767H171.921C172.946 74.9539 173.922 74.531 174.639 73.7984C175.356 73.0658 175.759 72.0816 175.76 71.0562Z" fill="#EBEBEB"/>
<path d="M67.3749 78.4961C67.3749 77.4543 66.9615 76.455 66.2253 75.7178C65.4892 74.9805 64.4905 74.5656 63.4487 74.564C63.0556 74.5618 62.6643 74.6166 62.287 74.7267C62.3475 74.3287 62.3786 73.9269 62.38 73.5244C62.3768 72.3008 62.1046 71.0928 61.5827 69.986C61.0608 68.8793 60.3019 67.9009 59.3598 67.12C58.4176 66.3392 57.3154 65.775 56.131 65.4676C54.9466 65.1601 53.7091 65.1168 52.5062 65.3407C51.6865 63.9911 50.4498 62.945 48.9829 62.3604C47.5161 61.7758 45.8988 61.6846 44.3755 62.1005C42.8522 62.5165 41.5057 63.4169 40.5395 64.6658C39.5732 65.9147 39.0398 67.4442 39.0197 69.0231H38.8977C37.1535 69.0744 35.4979 69.8034 34.2823 71.0553C33.0667 72.3073 32.3867 73.9836 32.3867 75.7286C32.3867 77.4736 33.0667 79.1499 34.2823 80.4018C35.4979 81.6537 37.1535 82.3827 38.8977 82.434H63.5184C64.55 82.4172 65.5335 81.9944 66.2555 81.2572C66.9774 80.52 67.3797 79.5279 67.3749 78.4961Z" fill="#EBEBEB"/>
<path d="M235.601 97.252C235.601 96.622 235.351 96.0177 234.905 95.5723C234.46 95.1268 233.856 94.8765 233.226 94.8765C232.994 94.8763 232.763 94.9096 232.54 94.9752C232.645 94.2606 232.594 93.5319 232.391 92.8386C232.189 92.1454 231.84 91.5037 231.368 90.9572C230.896 90.4107 230.312 89.9722 229.655 89.6713C228.999 89.3705 228.285 89.2144 227.563 89.2136C227.253 89.2129 226.944 89.2421 226.639 89.3007C226.139 88.4954 225.393 87.8732 224.511 87.5268C223.628 87.1804 222.658 87.1284 221.744 87.3785C220.829 87.6286 220.02 88.1674 219.437 88.9147C218.854 89.6619 218.528 90.5776 218.508 91.5252H218.386C217.308 91.5252 216.274 91.9535 215.511 92.716C214.749 93.4785 214.32 94.5126 214.32 95.5909C214.32 96.6692 214.749 97.7033 215.511 98.4658C216.274 99.2282 217.308 99.6566 218.386 99.6566H233.266C233.578 99.652 233.885 99.5862 234.171 99.4629C234.456 99.3396 234.715 99.1612 234.932 98.9379C235.149 98.7146 235.319 98.4508 235.434 98.1615C235.549 97.8723 235.606 97.5632 235.601 97.252Z" fill="#EBEBEB"/>
<path d="M92.0177 20.8575C92.0206 20.4867 91.936 20.1204 91.7707 19.7884C91.6054 19.4564 91.3641 19.168 91.0665 18.9468C90.7689 18.7255 90.4232 18.5776 90.0577 18.515C89.6921 18.4524 89.317 18.4769 88.9627 18.5865C89.0668 17.8719 89.016 17.1432 88.8137 16.45C88.6114 15.7567 88.2623 15.115 87.7902 14.5685C87.3181 14.022 86.7339 13.5835 86.0774 13.2826C85.4209 12.9818 84.7073 12.8257 83.9851 12.8249C83.6733 12.8243 83.3621 12.8535 83.0558 12.912C82.556 12.1067 81.8093 11.4845 80.927 11.1381C80.0448 10.7917 79.0742 10.7397 78.16 10.9898C77.2458 11.2399 76.4369 11.7788 75.8538 12.526C75.2707 13.2733 74.9448 14.1889 74.9244 15.1365H74.8548C73.7765 15.1365 72.7423 15.5649 71.9799 16.3273C71.2174 17.0898 70.7891 18.1239 70.7891 19.2022C70.7891 20.2805 71.2174 21.3146 71.9799 22.0771C72.7423 22.8395 73.7765 23.2679 74.8548 23.2679H89.7352C90.355 23.2437 90.9408 22.978 91.3673 22.5276C91.7939 22.0772 92.0273 21.4778 92.0177 20.8575Z" fill="#EBEBEB"/>
<path d="M52.1914 109.577L67.9198 181.022L70.7774 179.681L54.2591 109.176L52.1914 109.577Z" fill="#EBEBEB"/>
<path d="M232.779 180.68C232.779 180.68 223.033 113.55 244.941 44.1426L241.508 41.4941C241.508 41.4941 215.86 93.9995 219.594 182.585L232.779 180.68Z" fill="#E6E6E6"/>
<path d="M250.911 25.8934C258.938 20.6313 270.816 29.0008 272.448 42.0807C271.268 41.4004 270.035 40.8177 268.76 40.3382C268.138 37.045 267.54 34.1352 267.54 34.1352L267.97 40.042C267.261 39.7865 266.489 39.5367 265.647 39.3102L265.066 36.1332L264.805 39.1011C263.668 38.8357 262.516 38.6417 261.354 38.5203L259.856 29.2273L259.101 38.3344C257.912 38.3014 256.722 38.3539 255.541 38.4913L254.623 32.1836V38.619C253.606 38.7834 252.601 39.0143 251.614 39.3102L250.517 29.9011C250.517 29.9011 250.546 35.1922 250.487 39.6819C247.647 40.7112 245.021 42.2548 242.739 44.2355L242.652 43.0739C242.652 43.0739 243.576 30.691 250.911 25.8934Z" fill="#E0E0E0"/>
<path d="M239.812 21.6882C233.424 14.5151 219.786 19.4869 214.797 31.684C216.112 31.3309 217.455 31.088 218.81 30.9579C220.268 27.9435 221.61 25.2892 221.61 25.2892L219.652 30.8766C220.402 30.8185 221.209 30.7837 222.074 30.7837L223.439 27.8796L222.917 30.8127C224.084 30.8445 225.248 30.9493 226.401 31.1264L230.276 22.5652L228.638 31.5678C229.796 31.8429 230.931 32.204 232.035 32.6481L234.574 26.7993L232.907 32.9908C233.848 33.4115 234.758 33.8987 235.631 34.4486L239.156 25.6493C239.156 25.6493 237.739 30.7488 236.624 35.0933C239.096 36.8322 241.226 39.0118 242.908 41.5229L243.297 40.4252C243.297 40.4252 245.626 28.2397 239.812 21.6882Z" fill="#E0E0E0"/>
<path d="M233.673 38.699C240.062 32.4668 244.859 37.8916 244.859 37.8916C242.461 38.5131 240.317 40.0522 238.47 42.0096L237.605 40.8828L237.744 42.8053C237.303 43.3164 236.873 43.8508 236.461 44.4025L234.997 41.0745L235.624 45.5816C235.044 46.4412 234.463 47.324 233.981 48.2068L233.336 44.9078L233.388 49.2814C232.854 50.2687 232.378 51.2387 231.954 52.1506L231.257 46.0927L231.164 53.9279C230.142 56.344 229.607 58.04 229.607 58.04C229.607 58.04 227.284 44.9369 233.673 38.699Z" fill="#E0E0E0"/>
<path d="M250.912 53.4339L249.593 54.1947C249.402 53.1783 249.175 52.1154 248.925 51.0351L249.82 49.3914L248.693 50.0884C248.606 49.7283 248.507 49.374 248.414 49.0139L249.576 45.7962L247.834 47.0798C246.904 44.1757 245.719 41.626 244.238 40.4062C244.238 40.4062 258.886 45.0876 250.627 60.8799C250.627 60.8799 250.36 58.3824 249.773 55.1008L250.912 53.4339Z" fill="#E0E0E0"/>
<path d="M236.505 40.5117L234.182 36.0975L235.146 40.6976C234.913 40.7324 234.675 40.7789 234.437 40.8253L231.4 37.0442L232.149 41.3945C231.111 41.7088 230.093 42.0851 229.1 42.5213C228.017 43.0065 226.961 43.5473 225.934 44.1418L224.453 40.2794L225.144 44.6006C224.139 45.1814 223.158 45.8377 222.24 46.4999L221.508 43.0963L221.578 46.9703C220.416 47.8067 219.336 48.6547 218.337 49.4852L218.43 43.317L217.53 50.1648C216.508 51.036 215.584 51.8724 214.8 52.6158L214.69 48.3352L213.604 53.7716C212.477 54.8926 211.832 55.607 211.832 55.607C212.413 40.6279 218.221 34.6978 227.828 33.0715C237.434 31.4452 244.358 41.441 244.358 41.441C244.358 41.441 241.372 40.0238 236.505 40.5117Z" fill="#E0E0E0"/>
<path d="M264.525 58.8187L263.648 63.3083C263.224 62.199 262.649 60.776 261.906 59.1904L262.696 52.6562L261.255 57.808C260.129 55.4653 258.824 53.2128 257.352 51.0706L258.723 46.5403L256.504 49.9032C256.057 49.3224 255.598 48.7416 255.122 48.2072L255.9 45.3554L254.698 47.7426C254.373 47.3825 254.036 47.0398 253.693 46.7087L254.64 42.9044L253.136 46.1976C252.2 45.3414 251.169 44.595 250.063 43.9731L251.591 39.3266L249.198 43.5433C247.693 42.8375 246.044 42.4934 244.383 42.5385C244.383 42.5385 247.287 37.892 252.625 36.2948C257.962 34.6975 269.468 44.3622 264.473 65.6838C264.473 65.6838 264.322 65.2018 264.02 64.3712L264.525 58.8187Z" fill="#E0E0E0"/>
<path d="M255.719 17.3892L256.63 20.0958C256.294 20.1148 255.96 20.1634 255.631 20.241L254.534 16.7154L255.265 20.3281C254.569 20.5362 253.905 20.8392 253.291 21.2283L251.781 16.4715L252.652 21.6581C252.408 21.8382 252.164 22.0357 251.914 22.239L250.207 17.7725L251.49 22.6513C250.228 23.9147 249.151 25.3499 248.29 26.9145L247.843 20.3281L247.088 29.2668C245.836 32.0619 244.825 34.9592 244.067 37.9267C244.067 37.9267 243.138 14.1134 248.871 11.4417C254.603 8.76993 258.013 20.2061 258.013 20.2061C257.758 20.131 257.494 20.0881 257.229 20.0783L255.719 17.3892Z" fill="#E0E0E0"/>
<path d="M247.529 43.8812L247.018 48.3941L245.276 44.0438L242.953 47.4473L242.035 44.2761L239.352 46.5297C239.352 46.5297 239.683 40.7738 241.396 38.1427C243.109 35.5117 248.255 37.3586 247.529 43.8812Z" fill="#E0E0E0"/>
<path d="M175.985 116.447V84.9785C175.985 84.9785 169.596 91.7682 165.373 90.8389C161.151 89.9096 155.656 93.1215 155.656 93.1215C155.656 93.1215 161.191 92.3142 163.247 94.5619C165.304 96.8097 174.48 97.0478 174.48 97.0478V117.597L175.985 116.447Z" fill="#EBEBEB"/>
<path d="M204.156 106.799H202.704V108.779H197.919V106.799H193.214V108.779H188.428V106.799H183.729V108.779H178.938V106.799H174.239V108.779H169.453V106.799H164.748V108.779H159.962V106.799H155.258V108.779H150.472V106.799H148.863L144.199 144.087L208.977 143.82L204.156 106.799Z" fill="#E0E0E0"/>
<path d="M214.459 133.865H212.466V136.583H205.892V133.865H199.433V136.583H192.852V133.865H186.394V136.583H179.819V133.865H173.36V136.583H166.78V133.865H160.321V136.583H153.741V133.865H147.282V136.583H140.707V133.865H138.494L132.082 185.099L221.091 184.727L214.459 133.865Z" fill="#EBEBEB"/>
<path d="M247.34 179.064C245.963 177.513 244.668 175.928 243.228 174.418C243.153 174.342 243.085 174.261 243.025 174.174C242.55 173.867 242.055 173.593 241.543 173.355C241.451 173.326 241.149 173.204 240.841 173.088C240.26 172.878 239.679 172.652 239.098 172.42C235.491 170.968 232.25 169.283 229.526 166.42C228.034 164.852 226.843 163.022 225.298 161.5C225.258 161.553 224.955 161.39 224.81 161.274L223.649 161.123C223.027 161.123 222.4 161.123 221.778 161.163C220.89 161.204 220.001 161.274 219.113 161.355C215.628 166.42 211.272 173.337 209.343 174.249C206.352 175.666 178.787 182.961 176.754 182.514C174.721 182.067 164.081 182.944 161.409 182.845C158.737 182.746 153.899 181.562 146.889 178.338C139.878 175.115 136.056 175.097 127.617 172.408C119.178 169.719 113.521 168.697 108.584 172.832C103.647 176.967 90.0851 168.238 85.8568 166.995C81.6285 165.752 73.5436 158.59 68.0259 161.93C62.5081 165.27 57.9197 166.861 51.0255 172.832C44.1312 178.803 30.4531 190.343 30.4531 190.343H263.359L260.681 185.668C258.129 185.513 255.634 184.848 253.343 183.714C251.052 182.58 249.011 180.999 247.34 179.064Z" fill="#F5F5F5"/>
<path d="M25.0781 121.971C25.0781 121.971 31.8562 109.774 50.2215 99.25C50.2215 99.25 65.1716 97.978 82.05 105.337C82.05 105.337 85.471 111.017 81.5795 113.259C77.6881 115.501 74.4646 110.994 74.4646 110.994C74.4646 110.994 73.7444 117.859 68.6565 118.057C63.5685 118.254 62.0933 113.259 62.0933 113.259C62.0933 113.259 61.5938 119.561 55.5359 121.152C50.297 122.552 47.0444 118.057 47.0444 118.057C47.0444 118.057 45.999 123.237 41.2886 124.73C37.5017 125.927 34.8997 122.668 34.8997 122.668C34.8997 122.668 33.8135 128.291 29.7943 128.291C26.3385 128.291 25.0781 121.971 25.0781 121.971Z" fill="#E0E0E0"/>
</svg>
