<svg width="112" height="112" viewBox="0 0 112 112" fill="none" xmlns="http://www.w3.org/2000/svg">
<g id="Frame 427321005">
<g clip-path="url(#clip0_1705_55641)">
<g id="Clip path group">
<mask id="mask0_1705_55641" style="mask-type:luminance" maskUnits="userSpaceOnUse" x="0" y="-1" width="112" height="113">
<g id="_clip12">
<path id="Vector" d="M3.05176e-05 55.998C3.05176e-05 86.9271 25.0734 111.998 56 111.998C86.9291 111.998 112 86.9271 112 55.998C112 25.0714 86.9291 -0.00195312 56 -0.00195312C25.0734 -0.00195312 3.05176e-05 25.0714 3.05176e-05 55.998Z" fill="white"/>
</g>
</mask>
<g mask="url(#mask0_1705_55641)">
<g id="Group">
<path id="Vector_2" d="M3.05176e-05 55.998C3.05176e-05 86.9271 25.0734 111.998 56 111.998C86.9291 111.998 112 86.9271 112 55.998C112 25.0714 86.9291 -0.00195312 56 -0.00195312C25.0734 -0.00195312 3.05176e-05 25.0714 3.05176e-05 55.998Z" fill="#F2FAFF"/>
<g id="Clip path group_2">
<mask id="mask1_1705_55641" style="mask-type:luminance" maskUnits="userSpaceOnUse" x="-1" y="-1" width="113" height="113">
<g id="_clip13">
<path id="Vector_3" d="M-0.00387573 55.9961C-0.00387573 86.9252 25.0695 111.996 55.9961 111.996C86.9252 111.996 111.996 86.9252 111.996 55.9961C111.996 25.0695 86.9252 -0.00390625 55.9961 -0.00390625C25.0695 -0.00390625 -0.00387573 25.0695 -0.00387573 55.9961Z" fill="white"/>
</g>
</mask>
<g mask="url(#mask1_1705_55641)">
<g id="Group_2">
<path id="Vector_4" d="M-24.6367 189.513C-23.2629 186.072 -21.8867 182.63 -20.5129 179.186C-19.1935 175.885 -18.0422 173.038 -16.3077 169.928C-15.5936 168.65 -14.6226 166.978 -13.8147 165.708C-9.95289 158.604 -6.09105 151.501 -2.22676 144.397C0.216831 139.903 2.6604 135.408 5.10399 130.914C6.70999 127.962 8.31845 124.999 9.54149 121.871C11.0561 117.992 11.9604 113.905 12.7782 109.821C13.3836 106.819 13.9469 103.8 14.5522 100.793C16.3139 101.576 18.0731 102.367 19.8224 103.182C23.573 104.932 27.3038 106.755 31.0742 108.477C28.218 116.816 25.0975 125.026 20.7959 132.705C13.1142 146.428 1.72398 157.235 -7.56117 169.928C-7.8972 170.387 -7.74899 171.766 -7.78111 172.351C-7.88241 174.251 -7.72427 176.146 -7.95652 178.039C-8.19125 179.954 -8.63595 181.842 -9.27835 183.658C-9.5699 184.48 -10.363 185.236 -11.2031 184.498C-11.2797 184.451 -11.3514 184.394 -11.4181 184.317C-12.2507 183.435 -12.2556 182.227 -12.2013 181.091C-12.142 179.793 -12.2087 178.565 -12.7745 177.377C-12.9277 177.056 -13.1871 176.752 -13.5355 176.685C-13.748 176.641 -13.9679 176.695 -14.1754 176.762C-14.8672 176.999 -15.391 177.429 -15.8135 177.96C-16.0359 178.237 -16.2336 178.543 -16.409 178.864C-16.5795 179.168 -16.7327 179.482 -16.8809 179.798C-17.0637 180.194 -17.2367 180.589 -17.4195 180.962C-17.4541 181.041 -17.4912 181.115 -17.5308 181.189C-17.5629 181.256 -17.5999 181.325 -17.632 181.394C-17.8544 181.834 -18.0768 182.272 -18.2991 182.714C-18.7019 183.514 -19.1046 184.315 -19.5098 185.118C-19.8607 185.815 -20.214 186.514 -20.5649 187.213C-21.1826 188.434 -21.8422 189.802 -22.9467 190.667C-23.7719 191.315 -25.0888 190.65 -24.6367 189.513Z" fill="#FFCFCA"/>
<path id="Vector_5" d="M78.4192 79.5352C90.7434 79.5327 102.546 118.452 102.848 118.956C103.105 119.389 127.622 155.487 127.694 155.573C127.694 155.573 136.015 163.947 138.049 166.464C139.42 168.172 140.853 169.936 141.73 171.952C142.659 174.087 143.227 176.337 143.835 178.578C143.932 178.929 144.028 179.29 143.986 179.651C143.907 180.301 143.193 180.866 142.541 180.57C141.125 179.935 140.638 178.079 140.223 176.73C139.838 175.473 139.521 174.185 138.928 173.007C138.348 171.846 137.471 170.993 136.43 170.222C135.682 169.664 134.96 169.083 134.194 168.542C133.905 168.335 133.599 168.127 133.278 167.964C132.843 167.739 132.378 167.591 131.889 167.628C131.481 167.66 130.888 167.855 130.649 168.216C130.387 168.606 130.673 169.068 130.837 169.432C131.037 169.864 131.323 170.247 131.62 170.62C132.126 171.25 132.717 171.873 133.023 172.626C133.078 172.755 133.122 172.886 133.157 173.022C133.53 174.465 132.438 176.547 130.824 175.24C130.476 174.961 130.207 174.6 129.935 174.25C128.635 172.577 126.972 171.171 125.996 169.281C125.371 168.078 124.884 166.813 124.403 165.55C123.498 163.193 123.108 161.772 122.935 160.643L122.933 160.638L122.905 160.594C122.713 160.443 100.389 140.43 87.2349 122.497C84.1513 118.294 76.5957 101.762 72.939 89.7641C72.1854 87.2909 76.1189 81.9219 78.4192 79.5352Z" fill="#FFCFCA"/>
<path id="Vector_6" d="M60.6504 51.7888C56.9245 53.6912 53.1294 55.4529 49.3095 57.1651C48.1606 57.6791 46.9994 58.1954 45.7665 58.4524L45.512 65.4249L45.2921 71.3993C45.5169 71.5475 45.7566 71.671 46.0037 71.7748C47.1328 74.6409 49.9223 76.6694 53.1911 76.6694C56.707 76.6694 59.6719 74.3197 60.6059 71.1052C60.6775 71.083 60.7468 71.0608 60.8184 71.041C60.8184 70.7396 60.8209 70.4381 60.8209 70.1367C60.8826 69.7488 60.9147 69.351 60.9147 68.9458C60.9147 68.5653 60.8851 68.1922 60.8308 67.8241C60.8332 67.3052 60.8357 66.7838 60.8382 66.2625C60.8456 64.2711 60.8555 62.2772 61.063 60.2956C61.1273 59.6878 61.2063 59.0825 61.3051 58.4796C61.5374 56.9798 61.8537 55.4924 62.1699 54.005C62.4318 52.782 62.6912 51.5565 62.9531 50.3359C62.2218 51.0006 61.5349 51.3366 60.6504 51.7888Z" fill="#FFCFCA"/>
<path id="Vector_7" d="M38.0693 39.7879C38.4646 44.6331 40.5796 49.3424 44.0387 52.757C45.6225 54.3185 47.4854 55.6157 49.5559 56.4211C51.8315 57.3057 54.3121 57.5824 56.7483 57.4564C58.1888 57.3798 59.6391 57.1624 60.9585 56.5892C62.5423 55.8998 63.8666 54.7336 65.0995 53.5254C67.2071 51.4574 69.1491 49.1942 70.592 46.6171C72.0325 44.0426 72.959 41.137 72.9491 38.1844C72.9467 37.1837 72.833 36.1658 72.4451 35.2417C71.9287 34.0113 70.9676 33.0279 69.9817 32.131C66.7228 29.1612 62.9005 26.7299 58.6533 25.5514C54.2602 24.3333 49.6201 24.4963 45.0665 24.6717C43.9127 24.7137 42.8601 24.9411 41.9336 25.665C41.1775 26.2555 40.7624 27.2562 40.3473 28.0987C39.2058 30.4212 38.4547 32.9389 38.1508 35.511C37.9828 36.9292 37.9531 38.3648 38.0693 39.7879Z" fill="#534741"/>
<path id="Vector_8" d="M45.512 65.4249C49.7741 64.4737 53.9003 62.9171 57.6706 60.728C58.8714 60.0337 60.1167 59.2875 61.3051 58.4796C61.5374 56.9798 61.8537 55.4924 62.1699 54.005C62.4318 52.782 62.6912 51.5565 62.9531 50.3359C62.2218 51.0006 61.5349 51.3366 60.6504 51.7888C56.9245 53.6912 53.1294 55.4529 49.3095 57.1651C48.1606 57.6791 46.9994 58.1954 45.7665 58.4524L45.512 65.4249Z" fill="#F9BFBB"/>
<path id="Vector_9" d="M38.5755 37.508C38.8423 36.4307 39.1685 35.3683 39.5465 34.3355C40.7349 31.0766 42.9389 28.0771 45.8717 26.093C51.5075 22.288 59.3794 23.2195 63.9231 28.2278C65.0004 29.4137 65.875 30.7727 66.4927 32.2329C68.0221 35.818 68.1037 39.6748 67.2685 43.3884C66.5372 46.6745 65.0893 49.847 63.3054 52.6291C62.2059 54.3364 60.9335 55.9473 59.4238 57.3359C58.5615 58.129 57.6078 58.848 56.5923 59.4558C54.5539 60.6813 52.2537 61.4695 49.8669 61.5486C47.7099 61.6178 45.5134 61.0495 43.6924 59.9154C41.6392 58.6331 40.3989 56.6614 39.507 54.497C37.3179 49.1626 37.1869 43.0894 38.5755 37.508Z" fill="#FFCFCA"/>
<path id="Vector_10" d="M62.3182 51.4896C64.369 52.515 66.9632 52.3667 68.8682 51.0844C70.4767 50.0047 71.5267 48.1516 71.675 46.2244C71.6997 45.8736 71.6972 45.5227 71.6627 45.1694C71.6009 44.5542 71.4427 43.9439 71.1512 43.4003C70.4198 42.0587 68.8312 41.2681 67.3116 41.3891C65.7872 41.5151 64.3862 42.4985 63.6598 43.8426L63.1434 46.7828L62.3182 51.4896Z" fill="#FFCFCA"/>
<path id="Vector_11" d="M55.8925 33.4435C52.4507 32.7962 49.0015 32.0278 45.7425 30.8072C43.0939 29.8189 40.1635 27.9139 39.4544 25.0503C38.5674 21.4652 41.5793 18.7177 44.5788 17.3119C50.4321 14.5693 57.6689 15.0536 63.0132 18.7499C66.2573 20.9908 68.6984 24.3289 69.8202 28.0523C70.4626 30.1895 70.7294 33.4213 68.2142 34.4121C65.2912 35.5659 61.6765 34.4837 58.7091 33.9574C57.7752 33.7894 56.8338 33.6214 55.8925 33.4435Z" fill="#534741"/>
<path id="Vector_12" d="M75.6523 34.1957C75.3534 31.9794 74.3749 29.9311 72.5688 28.7822C69.9473 27.1144 65.9793 27.5839 64.3856 30.4376C63.3454 32.3006 63.3281 34.675 63.6123 36.7381C63.7432 37.7017 63.9977 38.6653 64.5141 39.5004C64.86 40.0613 66.0312 41.5091 66.8119 41.3955C67.0738 41.356 67.3456 41.3214 67.5704 41.3041C67.6149 41.2991 67.6594 41.2966 67.7039 41.2966C68.5044 41.2991 69.2506 41.5017 69.9424 41.902C70.4588 42.1812 70.8739 42.5617 71.1852 43.0435C72.1685 44.1183 73.6485 42.2627 74.1699 41.4795C75.4299 39.5819 76.0032 36.7751 75.6523 34.1957Z" fill="#534741"/>
<path id="Vector_13" d="M24.4497 114.736C24.4818 114.749 24.5115 114.766 24.5436 114.778C23.5997 130.544 23.0488 161.985 21.843 175.258C40.2429 174.124 67.4806 175.157 83.6592 173.19C84.0965 165.101 83.6642 145.972 81.4355 120.659C81.2181 118.173 80.9661 115.621 80.677 113.012C80.6671 112.93 80.6597 112.851 80.6498 112.767L80.6844 112.745C83.0811 111.107 85.7544 109.634 88.4352 108.186C92.1686 106.17 95.9142 104.206 98.9632 101.921C99.23 101.718 95.4226 95.1828 95.257 94.8393C90.0635 84.0223 81.0946 72.5579 68.7481 69.9117C68.0217 69.7561 60.9207 68.9482 60.9083 68.627C60.9108 68.7332 60.9133 68.8395 60.9133 68.9482C60.9133 73.2152 57.4567 76.6718 53.1897 76.6718C48.9251 76.6718 45.4685 73.2152 45.4685 68.9482C45.4685 68.8444 45.471 68.7406 45.4759 68.6393C39 69.9562 32.8206 72.8791 27.8074 77.1437C23.2514 81.0179 19.6267 85.9446 17.235 91.4198C16.7903 92.4328 16.3802 93.4606 15.9923 94.4984C14.3887 98.8123 13.141 103.247 11.7969 107.643C13.4128 108.836 15.1942 109.985 17.0744 111.07C19.4192 112.421 21.9221 113.667 24.4497 114.736Z" fill="#2D9187"/>
<path id="Vector_14" d="M24.6492 100.242C24.3651 105.068 24.7085 109.91 24.4466 114.733C21.919 113.661 19.4186 112.418 17.0714 111.067C18.2055 109.881 19.1888 108.546 19.9844 107.103C21.8869 103.654 22.6726 99.7233 23.7227 95.9282C24.7752 92.1306 26.1366 88.5134 28.9805 85.7832C26.0254 89.9415 24.9506 95.1548 24.6492 100.242Z" fill="#227879"/>
<path id="Vector_15" d="M53.8854 36.709C53.579 36.6769 53.2726 36.7016 52.9663 36.7263C52.4276 36.7708 51.8865 36.8153 51.3454 36.8597C51.1675 36.8746 50.9427 36.8647 50.8636 36.7016C50.8266 36.6225 50.8389 36.5262 50.8735 36.4446C51.0045 36.1308 51.3874 36.0271 51.7235 35.9826C52.5536 35.8788 53.4333 35.9357 54.2115 36.2643C54.3647 36.3285 55.2344 36.7263 55.1726 36.9314C55.1183 37.1117 54.0583 36.7263 53.8854 36.709Z" fill="#211A17"/>
<path id="Vector_16" d="M42.0956 36.3404C42.402 36.3305 42.7059 36.3775 43.0098 36.4244C43.546 36.5084 44.0821 36.5924 44.6158 36.6764C44.7937 36.7036 45.0186 36.711 45.1075 36.5553C45.152 36.4763 45.147 36.3799 45.1199 36.2959C45.0112 35.9747 44.6356 35.8413 44.3045 35.7746C43.4842 35.6091 42.6022 35.6016 41.8016 35.8734C41.646 35.9253 40.7466 36.2589 40.7935 36.4664C40.8355 36.6517 41.9202 36.3453 42.0956 36.3404Z" fill="#211A17"/>
<path id="Vector_17" d="M43.0514 50.5552C43.6567 52.1316 44.7711 53.2187 46.1226 53.3299C47.4247 53.4386 48.6601 52.6159 49.515 51.252C50.1006 50.3156 50.5082 49.1271 50.6367 47.8052L50.3822 47.783L42.8563 47.1629L42.577 47.1406C42.4906 48.3908 42.6709 49.5694 43.0514 50.5552Z" fill="#CE7872"/>
<path id="Vector_18" d="M42.8608 47.1602C43.6959 48.4252 44.9757 49.2776 46.4656 49.4011C47.9555 49.5247 49.3539 48.8922 50.3867 47.7803L42.8608 47.1602Z" fill="white"/>
<path id="Vector_19" d="M43.056 50.5533C43.6613 52.1296 44.7757 53.2168 46.1272 53.328C47.4293 53.4367 48.6646 52.6139 49.5195 51.2501C49.1514 51.0079 48.7684 50.7954 48.3656 50.6175C47.2069 50.1011 45.9048 49.8763 44.6521 50.0764C44.0937 50.1654 43.5649 50.3309 43.056 50.5533Z" fill="#EA8C8B"/>
<path id="Vector_20" d="M50.8969 41.5826C50.8648 42.608 51.4281 43.4579 52.1521 43.4777C52.876 43.4999 53.4863 42.6871 53.5184 41.6617C53.5481 40.6338 52.9872 39.7864 52.2632 39.7641C51.5393 39.7419 50.9265 40.5573 50.8969 41.5826Z" fill="#211A17"/>
<path id="Vector_21" d="M51.8491 40.9865C52.2716 40.9989 52.2518 41.6536 51.8293 41.6413C51.4068 41.6289 51.4266 40.9741 51.8491 40.9865Z" fill="white"/>
<path id="Vector_22" d="M43.9049 41.3726C43.8753 42.398 43.2625 43.2109 42.5386 43.1886C41.8147 43.1664 41.2538 42.3189 41.2834 41.2935C41.3155 40.2657 41.9258 39.4528 42.6498 39.4751C43.3737 39.4973 43.9371 40.3447 43.9049 41.3726Z" fill="#211A17"/>
<path id="Vector_23" d="M42.2094 40.5022C42.6294 40.5146 42.6121 41.1693 42.1896 41.1569C41.7671 41.1446 41.7869 40.4874 42.2094 40.5022Z" fill="white"/>
<path id="Vector_24" d="M46.1458 43.6774C46.5732 43.3438 47.2379 43.3537 47.6406 43.7169L46.472 45.738C46.1458 45.7183 45.879 45.4465 45.7604 45.1426C45.5603 44.6385 45.7184 44.011 46.1458 43.6774Z" fill="#CE7872"/>
<path id="Vector_25" d="M56.4703 43.7917C58.3975 43.9251 59.8726 45.3013 59.7639 46.8678C59.6552 48.4343 58.0047 49.5955 56.0775 49.4621C54.1503 49.3287 52.6752 47.95 52.784 46.3835C52.8927 44.8171 54.5431 43.6583 56.4703 43.7917Z" fill="#F9BFBB"/>
<path id="Vector_26" d="M37.9205 44.7423C37.9798 43.8652 38.9063 43.2129 39.9885 43.287C41.0707 43.3636 41.8984 44.137 41.8366 45.0141C41.7748 45.8937 40.8483 46.5459 39.7686 46.4693C38.6864 46.3952 37.8587 45.6219 37.9205 44.7423Z" fill="#F9BFBB"/>
<path id="Vector_27" d="M77.7179 93.7969C79.183 100.023 80.1738 106.366 80.6828 112.743C83.0794 111.105 85.7528 109.632 88.4336 108.184C87.638 107.631 86.8647 107.045 86.116 106.425C83.4377 104.199 81.1028 101.476 79.7365 98.2714C79.0718 96.7 78.7729 95.136 77.7179 93.7969Z" fill="#227879"/>
</g>
</g>
</g>
</g>
</g>
</g>
</g>
</g>
<defs>
<clipPath id="clip0_1705_55641">
<rect width="112" height="112" rx="56" fill="white"/>
</clipPath>
</defs>
</svg>
