<svg width="20" height="20" viewBox="0 0 20 20" fill="none" xmlns="http://www.w3.org/2000/svg">
<g id="vuesax/bold/airplane">
<g id="airplane">
<path id="Vector" d="M11.1422 16.7085L12.8172 12.8168L13.1839 11.9501C13.2505 11.8168 13.4255 11.7001 13.5755 11.7001H16.1255C16.9255 11.7001 17.8755 11.1085 18.2422 10.3918C18.3672 10.1418 18.3672 9.8418 18.2422 9.5918C17.8755 8.88346 16.9172 8.2918 16.1172 8.2918H13.5672C13.4172 8.2918 13.2422 8.17513 13.1755 8.0418L11.1339 3.2918C10.9172 2.7668 10.2589 2.3418 9.69219 2.3418H8.59219C7.88385 2.3418 7.53385 2.87513 7.81719 3.53346L9.61719 7.70846C9.75885 8.03346 9.58385 8.30013 9.22552 8.30013H8.30052H6.80052C6.60885 8.30013 6.33385 8.1918 6.20052 8.05846L4.25885 6.12513C4.05885 5.92513 3.66719 5.83346 3.38385 5.92513L2.25052 6.30013C1.75885 6.45013 1.52552 7.00846 1.75885 7.4668L3.42552 9.45013C3.68386 9.75013 3.68386 10.2418 3.42552 10.5418L1.75885 12.5251C1.53386 12.9835 1.75885 13.5418 2.25052 13.7085L3.38385 14.0835C3.65885 14.1751 4.05885 14.0835 4.25885 13.8835L6.20052 11.9501C6.33385 11.8085 6.60885 11.7001 6.80052 11.7001H9.22552C9.58385 11.7001 9.75052 11.9585 9.61719 12.2918L7.81719 16.4668C7.53385 17.1251 7.88385 17.6585 8.59219 17.6585H9.69219C10.2589 17.6585 10.9172 17.2335 11.1422 16.7085Z" fill="#38A993"/>
</g>
</g>
</svg>
