<svg width="20" height="20" viewBox="0 0 20 20" fill="none" xmlns="http://www.w3.org/2000/svg">
<path d="M10.8584 1.66602C11.7959 1.66852 12.2718 1.67352 12.6826 1.68518L12.8443 1.69102C13.031 1.69768 13.2151 1.70602 13.4376 1.71602C14.3243 1.75768 14.9293 1.89768 15.4601 2.10352C16.0101 2.31518 16.4735 2.60185 16.9368 3.06435C17.3605 3.48093 17.6884 3.98484 17.8976 4.54102C18.1035 5.07185 18.2435 5.67685 18.2851 6.56435C18.2951 6.78602 18.3034 6.97018 18.3101 7.15768L18.3151 7.31935C18.3276 7.72935 18.3326 8.20518 18.3343 9.14268L18.3351 9.76435V10.856C18.3372 11.4639 18.3308 12.0717 18.316 12.6793L18.311 12.841C18.3043 13.0285 18.296 13.2127 18.286 13.4343C18.2443 14.3218 18.1026 14.926 17.8976 15.4577C17.689 16.0142 17.3611 16.5182 16.9368 16.9344C16.5201 17.3579 16.0162 17.6858 15.4601 17.8952C14.9293 18.101 14.3243 18.241 13.4376 18.2827C13.2399 18.292 13.0421 18.3003 12.8443 18.3077L12.6826 18.3127C12.2718 18.3244 11.7959 18.3302 10.8584 18.3319L10.2368 18.3327H9.14595C8.53783 18.3348 7.92972 18.3284 7.32178 18.3135L7.16012 18.3085C6.96229 18.301 6.76451 18.2924 6.56678 18.2827C5.68012 18.241 5.07512 18.101 4.54345 17.8952C3.98734 17.6863 3.48363 17.3584 3.06762 16.9344C2.64349 16.5179 2.3153 16.014 2.10595 15.4577C1.90012 14.9268 1.76012 14.3218 1.71845 13.4343C1.70917 13.2366 1.70083 13.0388 1.69345 12.841L1.68928 12.6793C1.67393 12.0717 1.66698 11.4639 1.66845 10.856V9.14268C1.66612 8.53485 1.67224 7.92701 1.68678 7.31935L1.69262 7.15768C1.69928 6.97018 1.70762 6.78602 1.71762 6.56435C1.75928 5.67685 1.89928 5.07268 2.10512 4.54102C2.31438 3.98427 2.64322 3.4802 3.06845 3.06435C3.48436 2.64058 3.98774 2.31267 4.54345 2.10352C5.07512 1.89768 5.67928 1.75768 6.56678 1.71602C6.78845 1.70602 6.97345 1.69768 7.16012 1.69102L7.32178 1.68602C7.92944 1.67121 8.53728 1.66482 9.14512 1.66685L10.8584 1.66602ZM10.0018 5.83268C8.89671 5.83268 7.83691 6.27167 7.0555 7.05307C6.2741 7.83447 5.83512 8.89428 5.83512 9.99935C5.83512 11.1044 6.2741 12.1642 7.0555 12.9456C7.83691 13.727 8.89671 14.166 10.0018 14.166C11.1069 14.166 12.1667 13.727 12.9481 12.9456C13.7295 12.1642 14.1685 11.1044 14.1685 9.99935C14.1685 8.89428 13.7295 7.83447 12.9481 7.05307C12.1667 6.27167 11.1069 5.83268 10.0018 5.83268ZM10.0018 7.49935C10.3301 7.49929 10.6552 7.56391 10.9585 7.68949C11.2619 7.81508 11.5375 7.99918 11.7697 8.23129C12.0019 8.4634 12.1861 8.73896 12.3117 9.04226C12.4374 9.34555 12.5021 9.67063 12.5022 9.99893C12.5023 10.3272 12.4376 10.6523 12.3121 10.9557C12.1865 11.259 12.0024 11.5346 11.7703 11.7668C11.5382 11.999 11.2626 12.1832 10.9593 12.3089C10.656 12.4346 10.3309 12.4993 10.0026 12.4993C9.33958 12.4993 8.70369 12.236 8.23485 11.7671C7.76601 11.2983 7.50262 10.6624 7.50262 9.99935C7.50262 9.33631 7.76601 8.70042 8.23485 8.23158C8.70369 7.76274 9.33958 7.49935 10.0026 7.49935M14.3776 4.58268C14.1013 4.58268 13.8364 4.69243 13.641 4.88778C13.4457 5.08313 13.3359 5.34808 13.3359 5.62435C13.3359 5.90062 13.4457 6.16557 13.641 6.36092C13.8364 6.55627 14.1013 6.66602 14.3776 6.66602C14.6539 6.66602 14.9188 6.55627 15.1142 6.36092C15.3095 6.16557 15.4193 5.90062 15.4193 5.62435C15.4193 5.34808 15.3095 5.08313 15.1142 4.88778C14.9188 4.69243 14.6539 4.58268 14.3776 4.58268Z" fill="#677084"/>
</svg>
