<svg width="20" height="20" viewBox="0 0 20 20" fill="none" xmlns="http://www.w3.org/2000/svg">
<path d="M13.8354 4.85C13.2658 4.19969 12.9518 3.36453 12.9521 2.5H10.3771V12.8333C10.3572 13.3925 10.1211 13.9222 9.71855 14.3108C9.31597 14.6994 8.77829 14.9166 8.21875 14.9167C7.03542 14.9167 6.05208 13.95 6.05208 12.75C6.05208 11.3167 7.43542 10.2417 8.86042 10.6833V8.05C5.98542 7.66667 3.46875 9.9 3.46875 12.75C3.46875 15.525 5.76875 17.5 8.21042 17.5C10.8271 17.5 12.9521 15.375 12.9521 12.75V7.50833C13.9962 8.25821 15.2499 8.66054 16.5354 8.65833V6.08333C16.5354 6.08333 14.9688 6.15833 13.8354 4.85Z" fill="#677084"/>
</svg>
