<svg width="1236" height="95" viewBox="0 0 1236 95" fill="none" xmlns="http://www.w3.org/2000/svg">
<path d="M57.9781 6.33025L68.2282 30.2138L70.472 35.5326C70.88 36.3509 71.9509 37.0669 72.8688 37.0669H88.4734C93.369 37.0669 99.1825 40.698 101.426 45.0963C102.191 46.6306 102.191 48.4717 101.426 50.006C99.1825 54.3531 93.318 57.9842 88.4225 57.9842H72.8178C71.8999 57.9842 70.829 58.7002 70.4211 59.5185L57.9272 88.6697C56.6013 91.8917 52.5726 94.5 49.1049 94.5H42.3735C38.0389 94.5 35.8971 91.2269 37.631 87.1866L48.646 61.5642C49.5129 59.5696 48.442 57.9331 46.2492 57.9331H40.5887L31.4095 57.9331C30.2366 57.9331 28.5538 58.5979 27.7378 59.4162L15.8559 71.2813C14.632 72.5087 12.2352 73.0713 10.5014 72.5087L3.56598 70.2073C0.557243 69.2867 -0.870628 65.8602 0.557243 63.0473L10.7563 50.8754C12.3372 49.0343 12.3372 46.0169 10.7563 44.1757L0.557243 32.0038C-0.819633 29.191 0.557243 25.7644 3.56598 24.7416L10.5014 22.4402C12.1842 21.8776 14.632 22.4402 15.8559 23.6676L27.7378 35.5326C28.5538 36.4021 30.2366 37.0669 31.4095 37.0669L46.2492 37.0669C48.442 37.0669 49.4619 35.4815 48.646 33.4358L37.631 7.81339C35.8971 3.77312 38.0389 0.5 42.3735 0.5H49.1049C52.5726 0.5 56.6013 3.10828 57.9781 6.33025Z" fill="#2CA58D"/>
<path d="M183.978 6.33025L194.228 30.2138L196.472 35.5326C196.88 36.3509 197.951 37.0669 198.869 37.0669H214.473C219.369 37.0669 225.182 40.698 227.426 45.0963C228.191 46.6306 228.191 48.4717 227.426 50.006C225.182 54.3531 219.318 57.9842 214.422 57.9842H198.818C197.9 57.9842 196.829 58.7002 196.421 59.5185L183.927 88.6697C182.601 91.8917 178.573 94.5 175.105 94.5H168.374C164.039 94.5 161.897 91.2269 163.631 87.1866L174.646 61.5642C175.513 59.5696 174.442 57.9331 172.249 57.9331H166.589L157.41 57.9331C156.237 57.9331 154.554 58.5979 153.738 59.4162L141.856 71.2813C140.632 72.5087 138.235 73.0713 136.501 72.5087L129.566 70.2073C126.557 69.2867 125.129 65.8602 126.557 63.0473L136.756 50.8754C138.337 49.0343 138.337 46.0169 136.756 44.1757L126.557 32.0038C125.18 29.191 126.557 25.7644 129.566 24.7416L136.501 22.4402C138.184 21.8776 140.632 22.4402 141.856 23.6676L153.738 35.5326C154.554 36.4021 156.237 37.0669 157.41 37.0669L172.249 37.0669C174.442 37.0669 175.462 35.4815 174.646 33.4358L163.631 7.81339C161.897 3.77312 164.039 0.5 168.374 0.5H175.105C178.573 0.5 182.601 3.10828 183.978 6.33025Z" fill="#2CA58D"/>
<path d="M309.978 6.33025L320.228 30.2138L322.472 35.5326C322.88 36.3509 323.951 37.0669 324.869 37.0669H340.473C345.369 37.0669 351.182 40.698 353.426 45.0963C354.191 46.6306 354.191 48.4717 353.426 50.006C351.182 54.3531 345.318 57.9842 340.422 57.9842H324.818C323.9 57.9842 322.829 58.7002 322.421 59.5185L309.927 88.6697C308.601 91.8917 304.573 94.5 301.105 94.5H294.374C290.039 94.5 287.897 91.2269 289.631 87.1866L300.646 61.5642C301.513 59.5696 300.442 57.9331 298.249 57.9331H292.589L283.41 57.9331C282.237 57.9331 280.554 58.5979 279.738 59.4162L267.856 71.2813C266.632 72.5087 264.235 73.0713 262.501 72.5087L255.566 70.2073C252.557 69.2867 251.129 65.8602 252.557 63.0473L262.756 50.8754C264.337 49.0343 264.337 46.0169 262.756 44.1757L252.557 32.0038C251.18 29.191 252.557 25.7644 255.566 24.7416L262.501 22.4402C264.184 21.8776 266.632 22.4402 267.856 23.6676L279.738 35.5326C280.554 36.4021 282.237 37.0669 283.41 37.0669L298.249 37.0669C300.442 37.0669 301.462 35.4815 300.646 33.4358L289.631 7.81339C287.897 3.77312 290.039 0.5 294.374 0.5H301.105C304.573 0.5 308.601 3.10828 309.978 6.33025Z" fill="#2CA58D"/>
<path d="M435.978 6.33025L446.228 30.2138L448.472 35.5326C448.88 36.3509 449.951 37.0669 450.869 37.0669H466.473C471.369 37.0669 477.182 40.698 479.426 45.0963C480.191 46.6306 480.191 48.4717 479.426 50.006C477.182 54.3531 471.318 57.9842 466.422 57.9842H450.818C449.9 57.9842 448.829 58.7002 448.421 59.5185L435.927 88.6697C434.601 91.8917 430.573 94.5 427.105 94.5H420.374C416.039 94.5 413.897 91.2269 415.631 87.1866L426.646 61.5642C427.513 59.5696 426.442 57.9331 424.249 57.9331H418.589L409.41 57.9331C408.237 57.9331 406.554 58.5979 405.738 59.4162L393.856 71.2813C392.632 72.5087 390.235 73.0713 388.501 72.5087L381.566 70.2073C378.557 69.2867 377.129 65.8602 378.557 63.0473L388.756 50.8754C390.337 49.0343 390.337 46.0169 388.756 44.1757L378.557 32.0038C377.18 29.191 378.557 25.7644 381.566 24.7416L388.501 22.4402C390.184 21.8776 392.632 22.4402 393.856 23.6676L405.738 35.5326C406.554 36.4021 408.237 37.0669 409.41 37.0669L424.249 37.0669C426.442 37.0669 427.462 35.4815 426.646 33.4358L415.631 7.81339C413.897 3.77312 416.039 0.5 420.374 0.5H427.105C430.573 0.5 434.601 3.10828 435.978 6.33025Z" fill="#2CA58D"/>
<path d="M561.978 6.33025L572.228 30.2138L574.472 35.5326C574.88 36.3509 575.951 37.0669 576.869 37.0669H592.473C597.369 37.0669 603.182 40.698 605.426 45.0963C606.191 46.6306 606.191 48.4717 605.426 50.006C603.182 54.3531 597.318 57.9842 592.422 57.9842H576.818C575.9 57.9842 574.829 58.7002 574.421 59.5185L561.927 88.6697C560.601 91.8917 556.573 94.5 553.105 94.5H546.374C542.039 94.5 539.897 91.2269 541.631 87.1866L552.646 61.5642C553.513 59.5696 552.442 57.9331 550.249 57.9331H544.589L535.41 57.9331C534.237 57.9331 532.554 58.5979 531.738 59.4162L519.856 71.2813C518.632 72.5087 516.235 73.0713 514.501 72.5087L507.566 70.2073C504.557 69.2867 503.129 65.8602 504.557 63.0473L514.756 50.8754C516.337 49.0343 516.337 46.0169 514.756 44.1757L504.557 32.0038C503.18 29.191 504.557 25.7644 507.566 24.7416L514.501 22.4402C516.184 21.8776 518.632 22.4402 519.856 23.6676L531.738 35.5326C532.554 36.4021 534.237 37.0669 535.41 37.0669L550.249 37.0669C552.442 37.0669 553.462 35.4815 552.646 33.4358L541.631 7.81339C539.897 3.77312 542.039 0.5 546.374 0.5H553.105C556.573 0.5 560.601 3.10828 561.978 6.33025Z" fill="#2CA58D"/>
<path d="M687.978 6.33025L698.228 30.2138L700.472 35.5326C700.88 36.3509 701.951 37.0669 702.869 37.0669H718.473C723.369 37.0669 729.182 40.698 731.426 45.0963C732.191 46.6306 732.191 48.4717 731.426 50.006C729.182 54.3531 723.318 57.9842 718.422 57.9842H702.818C701.9 57.9842 700.829 58.7002 700.421 59.5185L687.927 88.6697C686.601 91.8917 682.573 94.5 679.105 94.5H672.374C668.039 94.5 665.897 91.2269 667.631 87.1866L678.646 61.5642C679.513 59.5696 678.442 57.9331 676.249 57.9331H670.589L661.41 57.9331C660.237 57.9331 658.554 58.5979 657.738 59.4162L645.856 71.2813C644.632 72.5087 642.235 73.0713 640.501 72.5087L633.566 70.2073C630.557 69.2867 629.129 65.8602 630.557 63.0473L640.756 50.8754C642.337 49.0343 642.337 46.0169 640.756 44.1757L630.557 32.0038C629.18 29.191 630.557 25.7644 633.566 24.7416L640.501 22.4402C642.184 21.8776 644.632 22.4402 645.856 23.6676L657.738 35.5326C658.554 36.4021 660.237 37.0669 661.41 37.0669L676.249 37.0669C678.442 37.0669 679.462 35.4815 678.646 33.4358L667.631 7.81339C665.897 3.77312 668.039 0.5 672.374 0.5H679.105C682.573 0.5 686.601 3.10828 687.978 6.33025Z" fill="#2CA58D"/>
<path d="M813.978 6.33025L824.228 30.2138L826.472 35.5326C826.88 36.3509 827.951 37.0669 828.869 37.0669H844.473C849.369 37.0669 855.182 40.698 857.426 45.0963C858.191 46.6306 858.191 48.4717 857.426 50.006C855.182 54.3531 849.318 57.9842 844.422 57.9842H828.818C827.9 57.9842 826.829 58.7002 826.421 59.5185L813.927 88.6697C812.601 91.8917 808.573 94.5 805.105 94.5H798.374C794.039 94.5 791.897 91.2269 793.631 87.1866L804.646 61.5642C805.513 59.5696 804.442 57.9331 802.249 57.9331H796.589L787.41 57.9331C786.237 57.9331 784.554 58.5979 783.738 59.4162L771.856 71.2813C770.632 72.5087 768.235 73.0713 766.501 72.5087L759.566 70.2073C756.557 69.2867 755.129 65.8602 756.557 63.0473L766.756 50.8754C768.337 49.0343 768.337 46.0169 766.756 44.1757L756.557 32.0038C755.18 29.191 756.557 25.7644 759.566 24.7416L766.501 22.4402C768.184 21.8776 770.632 22.4402 771.856 23.6676L783.738 35.5326C784.554 36.4021 786.237 37.0669 787.41 37.0669L802.249 37.0669C804.442 37.0669 805.462 35.4815 804.646 33.4358L793.631 7.81339C791.897 3.77312 794.039 0.5 798.374 0.5H805.105C808.573 0.5 812.601 3.10828 813.978 6.33025Z" fill="#2CA58D"/>
<path d="M939.978 6.33025L950.228 30.2138L952.472 35.5326C952.88 36.3509 953.951 37.0669 954.869 37.0669H970.473C975.369 37.0669 981.182 40.698 983.426 45.0963C984.191 46.6306 984.191 48.4717 983.426 50.006C981.182 54.3531 975.318 57.9842 970.422 57.9842H954.818C953.9 57.9842 952.829 58.7002 952.421 59.5185L939.927 88.6697C938.601 91.8917 934.573 94.5 931.105 94.5H924.374C920.039 94.5 917.897 91.2269 919.631 87.1866L930.646 61.5642C931.513 59.5696 930.442 57.9331 928.249 57.9331H922.589L913.41 57.9331C912.237 57.9331 910.554 58.5979 909.738 59.4162L897.856 71.2813C896.632 72.5087 894.235 73.0713 892.501 72.5087L885.566 70.2073C882.557 69.2867 881.129 65.8602 882.557 63.0473L892.756 50.8754C894.337 49.0343 894.337 46.0169 892.756 44.1757L882.557 32.0038C881.18 29.191 882.557 25.7644 885.566 24.7416L892.501 22.4402C894.184 21.8776 896.632 22.4402 897.856 23.6676L909.738 35.5326C910.554 36.4021 912.237 37.0669 913.41 37.0669L928.249 37.0669C930.442 37.0669 931.462 35.4815 930.646 33.4358L919.631 7.81339C917.897 3.77312 920.039 0.5 924.374 0.5H931.105C934.573 0.5 938.601 3.10828 939.978 6.33025Z" fill="#2CA58D"/>
<path d="M1065.98 6.33025L1076.23 30.2138L1078.47 35.5326C1078.88 36.3509 1079.95 37.0669 1080.87 37.0669H1096.47C1101.37 37.0669 1107.18 40.698 1109.43 45.0963C1110.19 46.6306 1110.19 48.4717 1109.43 50.006C1107.18 54.3531 1101.32 57.9842 1096.42 57.9842H1080.82C1079.9 57.9842 1078.83 58.7002 1078.42 59.5185L1065.93 88.6697C1064.6 91.8917 1060.57 94.5 1057.1 94.5H1050.37C1046.04 94.5 1043.9 91.2269 1045.63 87.1866L1056.65 61.5642C1057.51 59.5696 1056.44 57.9331 1054.25 57.9331H1048.59L1039.41 57.9331C1038.24 57.9331 1036.55 58.5979 1035.74 59.4162L1023.86 71.2813C1022.63 72.5087 1020.24 73.0713 1018.5 72.5087L1011.57 70.2073C1008.56 69.2867 1007.13 65.8602 1008.56 63.0473L1018.76 50.8754C1020.34 49.0343 1020.34 46.0169 1018.76 44.1757L1008.56 32.0038C1007.18 29.191 1008.56 25.7644 1011.57 24.7416L1018.5 22.4402C1020.18 21.8776 1022.63 22.4402 1023.86 23.6676L1035.74 35.5326C1036.55 36.4021 1038.24 37.0669 1039.41 37.0669L1054.25 37.0669C1056.44 37.0669 1057.46 35.4815 1056.65 33.4358L1045.63 7.81339C1043.9 3.77312 1046.04 0.5 1050.37 0.5H1057.1C1060.57 0.5 1064.6 3.10828 1065.98 6.33025Z" fill="#2CA58D"/>
<path d="M1191.98 6.33025L1202.23 30.2138L1204.47 35.5326C1204.88 36.3509 1205.95 37.0669 1206.87 37.0669H1222.47C1227.37 37.0669 1233.18 40.698 1235.43 45.0963C1236.19 46.6306 1236.19 48.4717 1235.43 50.006C1233.18 54.3531 1227.32 57.9842 1222.42 57.9842H1206.82C1205.9 57.9842 1204.83 58.7002 1204.42 59.5185L1191.93 88.6697C1190.6 91.8917 1186.57 94.5 1183.1 94.5H1176.37C1172.04 94.5 1169.9 91.2269 1171.63 87.1866L1182.65 61.5642C1183.51 59.5696 1182.44 57.9331 1180.25 57.9331H1174.59L1165.41 57.9331C1164.24 57.9331 1162.55 58.5979 1161.74 59.4162L1149.86 71.2813C1148.63 72.5087 1146.24 73.0713 1144.5 72.5087L1137.57 70.2073C1134.56 69.2867 1133.13 65.8602 1134.56 63.0473L1144.76 50.8754C1146.34 49.0343 1146.34 46.0169 1144.76 44.1757L1134.56 32.0038C1133.18 29.191 1134.56 25.7644 1137.57 24.7416L1144.5 22.4402C1146.18 21.8776 1148.63 22.4402 1149.86 23.6676L1161.74 35.5326C1162.55 36.4021 1164.24 37.0669 1165.41 37.0669L1180.25 37.0669C1182.44 37.0669 1183.46 35.4815 1182.65 33.4358L1171.63 7.81339C1169.9 3.77312 1172.04 0.5 1176.37 0.5H1183.1C1186.57 0.5 1190.6 3.10828 1191.98 6.33025Z" fill="#2CA58D"/>
</svg>
