<svg width="265" height="153" viewBox="0 0 265 153" fill="none" xmlns="http://www.w3.org/2000/svg">
<g filter="url(#filter0_d_1338_24875)">
<path d="M14 23.7162C14 16.0718 14 12.2496 16.3748 9.87481C18.7496 7.5 22.5718 7.5 30.2162 7.5H234.27C241.915 7.5 245.737 7.5 248.112 9.87481C250.486 12.2496 250.486 16.0718 250.486 23.7162V34.6081C250.486 42.2525 250.486 46.0747 248.112 48.4495C245.737 50.8243 241.915 50.8243 234.27 50.8243H30.2162C22.5718 50.8243 18.7496 50.8243 16.3748 48.4495C14 46.0747 14 42.2525 14 34.6081V23.7162Z" fill="white"/>
<path d="M14.3378 23.7162C14.3378 19.8845 14.3386 17.0446 14.6317 14.8644C14.9235 12.6939 15.4995 11.2279 16.6137 10.1137C17.7279 8.99953 19.1939 8.42349 21.3644 8.13168C23.5446 7.83856 26.3845 7.83784 30.2162 7.83784H234.27C238.102 7.83784 240.942 7.83856 243.122 8.13168C245.293 8.42349 246.759 8.99953 247.873 10.1137C248.987 11.2279 249.563 12.6939 249.855 14.8644C250.148 17.0446 250.149 19.8845 250.149 23.7162V34.6081C250.149 38.4399 250.148 41.2797 249.855 43.4599C249.563 45.6304 248.987 47.0965 247.873 48.2106C246.759 49.3248 245.293 49.9008 243.122 50.1926C240.942 50.4858 238.102 50.4865 234.27 50.4865H30.2162C26.3845 50.4865 23.5446 50.4858 21.3644 50.1926C19.1939 49.9008 17.7279 49.3248 16.6137 48.2106C15.4995 47.0965 14.9235 45.6304 14.6317 43.4599C14.3386 41.2797 14.3378 38.4399 14.3378 34.6081V23.7162Z" stroke="#F2F4F7" stroke-width="0.675676"/>
<g clip-path="url(#clip0_1338_24875)">
<path d="M37.3126 34.7367C37.3126 34.8711 37.2593 35 37.1642 35.0951C37.0692 35.1901 36.9403 35.2435 36.8059 35.2435H27.6843C27.5499 35.2435 27.421 35.1901 27.3259 35.0951C27.2309 35 27.1775 34.8711 27.1775 34.7367C27.1775 34.6023 27.2309 34.4734 27.3259 34.3784C27.421 34.2834 27.5499 34.23 27.6843 34.23H36.8059C36.9403 34.23 37.0692 34.2834 37.1642 34.3784C37.2593 34.4734 37.3126 34.6023 37.3126 34.7367ZM41.8646 26.9549C41.8513 27.0254 41.8232 27.0923 41.7822 27.1512C41.7411 27.21 41.688 27.2595 41.6264 27.2963L32.2888 32.8706C31.8996 33.0989 31.4566 33.2195 31.0054 33.2203C30.3627 33.2195 29.7445 32.9732 29.2774 32.5317L29.2698 32.5241L26.9875 30.2899C26.8667 30.1753 26.7761 30.0326 26.7236 29.8746C26.6711 29.7166 26.6583 29.548 26.6864 29.3839C26.7145 29.2197 26.7827 29.0651 26.8848 28.9335C26.9869 28.802 27.1199 28.6976 27.2719 28.6297L27.4619 28.5366C27.5819 28.4777 27.7204 28.4685 27.8471 28.5112L29.6372 29.1155L30.9148 28.3427L29.532 27.0005C29.4077 26.8859 29.314 26.742 29.2594 26.582C29.2049 26.4219 29.1912 26.2508 29.2198 26.0841C29.2483 25.9174 29.3181 25.7606 29.4227 25.6277C29.5274 25.4949 29.6636 25.3904 29.819 25.3237L29.8392 25.3155L30.2922 25.1438C30.4064 25.1013 30.5321 25.1013 30.6463 25.1438L34.0631 26.3993L37.3297 24.4496C37.8503 24.1398 38.465 24.0276 39.0615 24.1337C39.6579 24.2398 40.1962 24.557 40.5781 25.0273L40.5857 25.0368L41.7664 26.5501C41.8105 26.6067 41.8421 26.6721 41.859 26.7419C41.8759 26.8117 41.8778 26.8843 41.8646 26.9549ZM40.6142 26.7205L39.7907 25.6645C39.5615 25.3841 39.2393 25.1953 38.8827 25.1323C38.5261 25.0693 38.1587 25.1363 37.8473 25.3212L34.376 27.3938C34.311 27.4324 34.2382 27.456 34.163 27.463C34.0877 27.47 34.0118 27.4602 33.9408 27.4344L30.4714 26.1586L30.2181 26.2555L30.2314 26.2682L32.0911 28.0729C32.1467 28.1269 32.1891 28.1928 32.2152 28.2658C32.2413 28.3387 32.2503 28.4166 32.2415 28.4936C32.2328 28.5705 32.2065 28.6444 32.1647 28.7097C32.123 28.7749 32.0668 28.8296 32.0006 28.8698L29.9602 30.1043C29.8971 30.1425 29.8264 30.1664 29.7531 30.1743C29.6798 30.1823 29.6057 30.1742 29.5358 30.1506L27.7197 29.538L27.7077 29.5444L27.6843 29.5552C27.6873 29.5573 27.6901 29.5599 27.6925 29.5628L29.9729 31.7963C30.2109 32.0199 30.5149 32.1604 30.8395 32.1967C31.164 32.2331 31.4916 32.1632 31.7732 31.9977L40.6142 26.7205Z" fill="#99A2B2"/>
</g>
<path d="M50.4883 21.3916V36.9321" stroke="#F2F4F7" stroke-width="0.675676" stroke-linecap="round"/>
<path d="M63.9329 33.8081C63.2762 33.8081 62.664 33.6905 62.0965 33.4554C61.537 33.2202 61.0424 32.8918 60.6127 32.4702C60.191 32.0486 59.8586 31.554 59.6154 30.9864C59.3802 30.4189 59.2627 29.7986 59.2627 29.1256C59.2627 28.4526 59.3802 27.8324 59.6154 27.2648C59.8586 26.6891 60.191 26.1945 60.6127 25.781C61.0343 25.3594 61.5289 25.0351 62.0965 24.8081C62.664 24.5729 63.2762 24.4554 63.9329 24.4554C64.5978 24.4554 65.21 24.5729 65.7694 24.8081C66.337 25.0351 66.8316 25.3594 67.2532 25.781C67.6829 26.2026 68.0154 26.6972 68.2505 27.2648C68.4856 27.8324 68.6032 28.4526 68.6032 29.1256C68.6032 29.7986 68.4816 30.4189 68.2383 30.9864C68.0032 31.554 67.6748 32.0486 67.2532 32.4702C66.8316 32.8918 66.337 33.2202 65.7694 33.4554C65.2019 33.6905 64.5897 33.8081 63.9329 33.8081ZM63.9329 32.4945C64.4032 32.4945 64.8329 32.4094 65.2221 32.2391C65.6194 32.0689 65.964 31.8337 66.2559 31.5337C66.5478 31.2256 66.7748 30.8689 66.937 30.4635C67.0992 30.0499 67.1802 29.604 67.1802 29.1256C67.1802 28.6472 67.0992 28.2054 66.937 27.7999C66.7748 27.3945 66.5478 27.0378 66.2559 26.7297C65.964 26.4216 65.6194 26.1824 65.2221 26.0121C64.8329 25.8418 64.4032 25.7567 63.9329 25.7567C63.4627 25.7567 63.0289 25.8418 62.6316 26.0121C62.2424 26.1824 61.9019 26.4216 61.61 26.7297C61.3181 27.0378 61.091 27.3945 60.9289 27.7999C60.7748 28.2054 60.6978 28.6472 60.6978 29.1256C60.6978 29.604 60.7748 30.0499 60.9289 30.4635C61.091 30.8689 61.3181 31.2256 61.61 31.5337C61.9019 31.8337 62.2465 32.0689 62.6438 32.2391C63.041 32.4094 63.4708 32.4945 63.9329 32.4945ZM70.074 33.6621V27.0824H71.3875V28.4081L71.2659 28.2135C71.4118 27.7837 71.6469 27.4756 71.9713 27.2891C72.2956 27.0945 72.6848 26.9972 73.1388 26.9972H73.5402V28.2499H72.9686C72.5145 28.2499 72.1456 28.3918 71.8618 28.6756C71.5861 28.9513 71.4483 29.3486 71.4483 29.8675V33.6621H70.074ZM74.4804 33.6621V27.0824H75.8547V33.6621H74.4804ZM74.4804 26.1824V24.6013H75.8547V26.1824H74.4804ZM80.6359 36.3378C80.1575 36.3378 79.7156 36.2608 79.3102 36.1067C78.9048 35.9527 78.5561 35.7378 78.2642 35.4621C77.9724 35.1945 77.7534 34.8783 77.6075 34.5135L78.8724 33.9905C78.9859 34.2986 79.1926 34.554 79.4926 34.7567C79.8007 34.9594 80.1778 35.0608 80.6237 35.0608C80.9724 35.0608 81.2845 34.9918 81.5602 34.854C81.8359 34.7243 82.0548 34.5297 82.2169 34.2702C82.3791 34.0189 82.4602 33.7148 82.4602 33.3581V31.8743L82.7034 32.154C82.4764 32.5756 82.1602 32.8959 81.7548 33.1148C81.3575 33.3337 80.9075 33.4432 80.4048 33.4432C79.7967 33.4432 79.2494 33.3013 78.7629 33.0175C78.2764 32.7337 77.8913 32.3445 77.6075 31.8499C77.3318 31.3554 77.194 30.7999 77.194 30.1837C77.194 29.5594 77.3318 29.004 77.6075 28.5175C77.8913 28.031 78.2724 27.6459 78.7507 27.3621C79.2291 27.0783 79.7764 26.9364 80.3926 26.9364C80.8953 26.9364 81.3413 27.0459 81.7305 27.2648C82.1278 27.4756 82.4521 27.7837 82.7034 28.1891L82.521 28.5297V27.0824H83.8224V33.3581C83.8224 33.9256 83.6845 34.4324 83.4088 34.8783C83.1413 35.3324 82.7683 35.6891 82.2899 35.9486C81.8115 36.2081 81.2602 36.3378 80.6359 36.3378ZM80.5629 32.1662C80.9278 32.1662 81.2521 32.081 81.5359 31.9108C81.8196 31.7324 82.0426 31.4972 82.2048 31.2054C82.3751 30.9054 82.4602 30.5689 82.4602 30.1959C82.4602 29.8229 82.3751 29.4864 82.2048 29.1864C82.0345 28.8864 81.8075 28.6513 81.5237 28.481C81.2399 28.3026 80.9196 28.2135 80.5629 28.2135C80.1899 28.2135 79.8575 28.3026 79.5656 28.481C79.2737 28.6513 79.0426 28.8864 78.8724 29.1864C78.7102 29.4783 78.6291 29.8148 78.6291 30.1959C78.6291 30.5608 78.7102 30.8932 78.8724 31.1932C79.0426 31.4932 79.2737 31.7324 79.5656 31.9108C79.8575 32.081 80.1899 32.1662 80.5629 32.1662ZM85.4311 33.6621V27.0824H86.8054V33.6621H85.4311ZM85.4311 26.1824V24.6013H86.8054V26.1824H85.4311ZM88.4122 33.6621V27.0824H89.7258V28.3716L89.5676 28.2013C89.7298 27.7878 89.9893 27.4756 90.346 27.2648C90.7028 27.0459 91.1163 26.9364 91.5866 26.9364C92.073 26.9364 92.5028 27.0418 92.8758 27.2526C93.2487 27.4635 93.5406 27.7554 93.7514 28.1283C93.9622 28.5013 94.0676 28.931 94.0676 29.4175V33.6621H92.7055V29.7824C92.7055 29.4499 92.6447 29.1702 92.523 28.9432C92.4014 28.7081 92.2271 28.5297 92.0001 28.4081C91.7812 28.2783 91.5298 28.2135 91.246 28.2135C90.9622 28.2135 90.7068 28.2783 90.4798 28.4081C90.2609 28.5297 90.0906 28.7081 89.969 28.9432C89.8474 29.1783 89.7866 29.4581 89.7866 29.7824V33.6621H88.4122Z" fill="#99A2B2"/>
</g>
<rect width="35" height="7" transform="translate(22 7.5)" fill="white"/>
<path d="M28.244 11.0674V4.02009H32.8318V5.01333H29.3602V7.13225H32.4535V8.12549H29.3602V11.0674H28.244ZM33.3778 11.0674V5.94982H34.3994V6.9809L34.3048 6.82954C34.4183 6.49531 34.6012 6.25567 34.8534 6.11063C35.1057 5.95927 35.4084 5.8836 35.7615 5.8836H36.0737V6.85792H35.6291C35.276 6.85792 34.989 6.96828 34.7683 7.189C34.5539 7.40342 34.4467 7.71243 34.4467 8.11603V11.0674H33.3778ZM39.2739 11.1809C38.782 11.1809 38.3311 11.0642 37.9212 10.8309C37.5176 10.5976 37.196 10.2791 36.9563 9.87549C36.7167 9.47189 36.5969 9.01468 36.5969 8.50387C36.5969 7.98675 36.7167 7.52954 36.9563 7.13225C37.196 6.72864 37.5176 6.41333 37.9212 6.1863C38.3248 5.95297 38.7757 5.8363 39.2739 5.8363C39.7784 5.8363 40.2293 5.95297 40.6266 6.1863C41.0302 6.41333 41.3487 6.72864 41.582 7.13225C41.8216 7.52954 41.9414 7.98675 41.9414 8.50387C41.9414 9.02099 41.8216 9.48135 41.582 9.88495C41.3423 10.2886 41.0207 10.607 40.6171 10.8404C40.2135 11.0674 39.7658 11.1809 39.2739 11.1809ZM39.2739 10.1877C39.5766 10.1877 39.8446 10.1151 40.0779 9.97009C40.3113 9.82504 40.4942 9.62639 40.6266 9.37414C40.7653 9.11558 40.8347 8.82549 40.8347 8.50387C40.8347 8.18225 40.7653 7.89531 40.6266 7.64306C40.4942 7.39081 40.3113 7.19216 40.0779 7.04711C39.8446 6.90207 39.5766 6.82954 39.2739 6.82954C38.9775 6.82954 38.7095 6.90207 38.4698 7.04711C38.2365 7.19216 38.0505 7.39081 37.9117 7.64306C37.7793 7.89531 37.7131 8.18225 37.7131 8.50387C37.7131 8.82549 37.7793 9.11558 37.9117 9.37414C38.0505 9.62639 38.2365 9.82504 38.4698 9.97009C38.7095 10.1151 38.9775 10.1877 39.2739 10.1877ZM42.985 11.0674V5.94982H44.0066V7.05657L43.8742 6.8863C43.9814 6.53945 44.1769 6.27774 44.4607 6.10117C44.7445 5.92459 45.0693 5.8363 45.435 5.8363C45.8449 5.8363 46.2075 5.94666 46.5229 6.16738C46.8445 6.3818 47.0589 6.66873 47.1661 7.02819L46.8634 7.05657C47.0147 6.64666 47.2449 6.34081 47.5539 6.139C47.8693 5.9372 48.2287 5.8363 48.6323 5.8363C48.9855 5.8363 49.3039 5.91828 49.5877 6.08225C49.8778 6.24621 50.108 6.47324 50.2783 6.76333C50.4485 7.05342 50.5337 7.3845 50.5337 7.75657V11.0674H49.4647V8.04982C49.4647 7.79126 49.4175 7.57369 49.3229 7.39711C49.2346 7.21423 49.1084 7.07549 48.9445 6.9809C48.7868 6.88 48.6008 6.82954 48.3864 6.82954C48.172 6.82954 47.9828 6.88 47.8188 6.9809C47.6548 7.07549 47.5256 7.21423 47.431 7.39711C47.3364 7.58 47.2891 7.79756 47.2891 8.04982V11.0674H46.2296V8.04982C46.2296 7.79126 46.1823 7.57369 46.0877 7.39711C45.9994 7.21423 45.8733 7.07549 45.7093 6.9809C45.5517 6.88 45.3625 6.82954 45.1418 6.82954C44.9274 6.82954 44.7382 6.88 44.5742 6.9809C44.4102 7.07549 44.281 7.21423 44.1864 7.39711C44.0981 7.58 44.0539 7.79756 44.0539 8.04982V11.0674H42.985Z" fill="#99A2B2"/>
<g filter="url(#filter1_d_1338_24875)">
<path d="M14 80.473C14 72.8287 14 69.0065 16.3748 66.6316C18.7496 64.2568 22.5718 64.2568 30.2162 64.2568H234.27C241.915 64.2568 245.737 64.2568 248.112 66.6316C250.486 69.0065 250.486 72.8287 250.486 80.4731V91.3649C250.486 99.0093 250.486 102.832 248.112 105.206C245.737 107.581 241.915 107.581 234.27 107.581H30.2162C22.5718 107.581 18.7496 107.581 16.3748 105.206C14 102.832 14 99.0093 14 91.3649V80.473Z" fill="white" shape-rendering="crispEdges"/>
<path d="M14.3378 80.473C14.3378 76.6413 14.3386 73.8015 14.6317 71.6213C14.9235 69.4508 15.4995 67.9847 16.6137 66.8705C17.7279 65.7564 19.1939 65.1803 21.3644 64.8885C23.5446 64.5954 26.3845 64.5947 30.2162 64.5947H234.27C238.102 64.5947 240.942 64.5954 243.122 64.8885C245.293 65.1803 246.759 65.7564 247.873 66.8705C248.987 67.9847 249.563 69.4508 249.855 71.6213C250.148 73.8015 250.149 76.6413 250.149 80.4731V91.3649C250.149 95.1967 250.148 98.0365 249.855 100.217C249.563 102.387 248.987 103.853 247.873 104.967C246.759 106.082 245.293 106.658 243.122 106.949C240.942 107.243 238.102 107.243 234.27 107.243H30.2162C26.3845 107.243 23.5446 107.243 21.3644 106.949C19.1939 106.658 17.7279 106.082 16.6137 104.967C15.4995 103.853 14.9235 102.387 14.6317 100.217C14.3386 98.0365 14.3378 95.1967 14.3378 91.3649V80.473Z" stroke="#F2F4F7" stroke-width="0.675676" shape-rendering="crispEdges"/>
<path d="M41.8756 91.4934C41.8756 91.6278 41.8222 91.7567 41.7272 91.8517C41.6322 91.9467 41.5033 92.0001 41.3689 92.0001H32.2473C32.1129 92.0001 31.984 91.9467 31.8889 91.8517C31.7939 91.7567 31.7405 91.6278 31.7405 91.4934C31.7405 91.359 31.7939 91.2301 31.8889 91.135C31.984 91.04 32.1129 90.9866 32.2473 90.9866H41.3689C41.5033 90.9866 41.6322 91.04 41.7272 91.135C41.8222 91.2301 41.8756 91.359 41.8756 91.4934ZM40.2185 89.9541L29.03 86.8211C28.4982 86.6708 28.0299 86.3513 27.6961 85.911C27.3622 85.4707 27.1809 84.9336 27.1797 84.381V80.8515C27.1797 80.6909 27.2178 80.5326 27.291 80.3896C27.3642 80.2466 27.4703 80.1231 27.6006 80.0292C27.7309 79.9353 27.8816 79.8737 28.0404 79.8495C28.1991 79.8253 28.3614 79.8391 28.5137 79.8899L28.8602 80.0052C28.9329 80.0293 28.9991 80.0696 29.054 80.1231C29.1089 80.1765 29.1509 80.2417 29.1769 80.3137L29.8484 82.1741L31.7405 82.7132V80.8515C31.7405 80.6909 31.7786 80.5326 31.8518 80.3896C31.925 80.2466 32.0311 80.1231 32.1614 80.0292C32.2917 79.9353 32.4424 79.8737 32.6012 79.8495C32.7599 79.8253 32.9222 79.8391 33.0745 79.8899L33.421 80.0052C33.4896 80.028 33.5525 80.0653 33.6055 80.1145C33.6585 80.1636 33.7003 80.2236 33.7283 80.2902L35.1535 83.6874L39.0074 84.7643C39.5402 84.9139 40.0097 85.2334 40.3444 85.6741C40.6792 86.1148 40.8609 86.6528 40.8621 87.2062V89.4663C40.8621 89.5446 40.844 89.6217 40.8091 89.6917C40.7743 89.7618 40.7238 89.8228 40.6614 89.87C40.5991 89.9173 40.5267 89.9494 40.4499 89.964C40.373 89.9786 40.2938 89.9752 40.2185 89.9541ZM39.8486 87.2062C39.8477 86.8741 39.7385 86.5513 39.5375 86.2869C39.3366 86.0224 39.0548 85.8308 38.735 85.741L34.6448 84.6008C34.5712 84.5803 34.5031 84.5434 34.4457 84.4928C34.3883 84.4423 34.3432 84.3793 34.3136 84.3088L32.8807 80.8939L32.754 80.8515V83.3853C32.7541 83.4637 32.7359 83.5411 32.701 83.6113C32.6661 83.6815 32.6153 83.7426 32.5528 83.7899C32.4902 83.8372 32.4175 83.8693 32.3404 83.8837C32.2633 83.8982 32.184 83.8945 32.1085 83.873L29.3214 83.0787C29.244 83.0565 29.173 83.0162 29.1143 82.9611C29.0556 82.906 29.0108 82.8378 28.9837 82.762L28.3066 80.8889L28.1932 80.8515V84.381C28.194 84.7127 28.3028 85.035 28.5032 85.2992C28.7036 85.5635 28.9845 85.7553 29.3036 85.8456L39.8486 88.7981V87.2062Z" fill="#99A2B2"/>
<path d="M50.4883 78.1484V93.689" stroke="#F2F4F7" stroke-width="0.675676" stroke-linecap="round"/>
<path d="M59.2978 89.4189V83.4589H61.8018C62.1378 83.4589 62.4284 83.5229 62.6738 83.6509C62.9244 83.7736 63.1164 83.9469 63.2498 84.1709C63.3884 84.3949 63.4578 84.6563 63.4578 84.9549C63.4578 85.2643 63.3804 85.5389 63.2258 85.7789C63.0764 86.0136 62.8604 86.1923 62.5778 86.3149L62.5698 86.1229C62.8044 86.2083 63.0044 86.3283 63.1698 86.4829C63.3404 86.6376 63.4711 86.8189 63.5618 87.0269C63.6524 87.2296 63.6978 87.4483 63.6978 87.6829C63.6978 88.2163 63.5271 88.6403 63.1858 88.9549C62.8498 89.2643 62.3911 89.4189 61.8098 89.4189H59.2978ZM59.9378 88.8189H61.8098C62.1884 88.8189 62.4898 88.7203 62.7138 88.5229C62.9431 88.3203 63.0578 88.0429 63.0578 87.6909C63.0578 87.3443 62.9431 87.0696 62.7138 86.8669C62.4898 86.6589 62.1884 86.5549 61.8098 86.5549H59.9378V88.8189ZM59.9378 85.9789H61.7538C62.0738 85.9789 62.3298 85.8856 62.5218 85.6989C62.7191 85.5123 62.8177 85.2723 62.8177 84.9789C62.8177 84.6803 62.7191 84.4536 62.5218 84.2989C62.3298 84.1389 62.0738 84.0589 61.7538 84.0589H59.9378V85.9789ZM65.9966 89.5149C65.7246 89.5149 65.482 89.4643 65.2686 89.3629C65.0553 89.2563 64.8873 89.1123 64.7646 88.9309C64.642 88.7496 64.5806 88.5416 64.5806 88.3069C64.5806 88.0829 64.6286 87.8803 64.7246 87.6989C64.8206 87.5123 64.97 87.3549 65.1726 87.2269C65.3753 87.0989 65.634 87.0083 65.9486 86.9549L67.6286 86.6749V87.2189L66.0926 87.4749C65.7833 87.5283 65.5593 87.6269 65.4206 87.7709C65.2873 87.9149 65.2206 88.0856 65.2206 88.2829C65.2206 88.4749 65.2953 88.6376 65.4446 88.7709C65.5993 88.9043 65.7966 88.9709 66.0366 88.9709C66.33 88.9709 66.586 88.9096 66.8046 88.7869C67.0233 88.6589 67.194 88.4883 67.3166 88.2749C67.4393 88.0616 67.5006 87.8243 67.5006 87.5629V86.4749C67.5006 86.2189 67.4073 86.0109 67.2206 85.8509C67.034 85.6909 66.7913 85.6109 66.4926 85.6109C66.2313 85.6109 66.002 85.6776 65.8046 85.8109C65.6073 85.9389 65.4606 86.1069 65.3646 86.3149L64.8206 86.0189C64.9006 85.8376 65.026 85.6723 65.1966 85.5229C65.3726 85.3736 65.5726 85.2563 65.7966 85.1709C66.0206 85.0803 66.2526 85.0349 66.4926 85.0349C66.8073 85.0349 67.0846 85.0963 67.3246 85.2189C67.57 85.3416 67.7593 85.5123 67.8926 85.7309C68.0313 85.9443 68.1006 86.1923 68.1006 86.4749V89.4189H67.5006V88.5629L67.5886 88.6509C67.514 88.8109 67.3966 88.9576 67.2366 89.0909C67.082 89.2189 66.898 89.3229 66.6846 89.4029C66.4766 89.4776 66.2473 89.5149 65.9966 89.5149ZM69.3348 89.4189V83.3629H69.9348V89.4189H69.3348ZM71.1629 89.4189V85.1309H71.7629V89.4189H71.1629ZM71.1629 84.3389V83.4589H71.7629V84.3389H71.1629Z" fill="#D0D5DD"/>
</g>
<rect width="22" height="6" transform="translate(22 64.5)" fill="white"/>
<path d="M29.4927 67.8242V61.7702H27.6197V60.7769H32.444V61.7702H30.5994V67.8242H29.4927ZM34.9783 67.9377C34.4864 67.9377 34.0355 67.8211 33.6256 67.5877C33.222 67.3544 32.9004 67.0359 32.6608 66.6323C32.4211 66.2287 32.3013 65.7715 32.3013 65.2607C32.3013 64.7436 32.4211 64.2864 32.6608 63.8891C32.9004 63.4855 33.222 63.1702 33.6256 62.9431C34.0292 62.7098 34.4801 62.5931 34.9783 62.5931C35.4828 62.5931 35.9337 62.7098 36.331 62.9431C36.7346 63.1702 37.0531 63.4855 37.2864 63.8891C37.5261 64.2864 37.6459 64.7436 37.6459 65.2607C37.6459 65.7778 37.5261 66.2382 37.2864 66.6418C37.0468 67.0454 36.7252 67.3639 36.3216 67.5972C35.918 67.8242 35.4702 67.9377 34.9783 67.9377ZM34.9783 66.9445C35.281 66.9445 35.549 66.872 35.7824 66.7269C36.0157 66.5819 36.1986 66.3832 36.331 66.131C36.4698 65.8724 36.5391 65.5823 36.5391 65.2607C36.5391 64.9391 36.4698 64.6521 36.331 64.3999C36.1986 64.1476 36.0157 63.949 35.7824 63.8039C35.549 63.6589 35.281 63.5864 34.9783 63.5864C34.6819 63.5864 34.4139 63.6589 34.1743 63.8039C33.9409 63.949 33.7549 64.1476 33.6162 64.3999C33.4837 64.6521 33.4175 64.9391 33.4175 65.2607C33.4175 65.5823 33.4837 65.8724 33.6162 66.131C33.7549 66.3832 33.9409 66.5819 34.1743 66.7269C34.4139 66.872 34.6819 66.9445 34.9783 66.9445Z" fill="#99A2B2"/>
<path d="M193.727 58.1758C193.727 47.7271 202.197 39.2568 212.645 39.2568C223.094 39.2568 231.564 47.7271 231.564 58.1758C231.564 68.6244 223.094 77.0947 212.645 77.0947C202.197 77.0947 193.727 68.6244 193.727 58.1758Z" fill="#38A993"/>
<path d="M210.285 64.8761L206.328 60.9268" stroke="white" stroke-width="1.01351" stroke-miterlimit="10" stroke-linecap="round" stroke-linejoin="round"/>
<path d="M210.285 51.4756V64.8765" stroke="white" stroke-width="1.01351" stroke-miterlimit="10" stroke-linecap="round" stroke-linejoin="round"/>
<path d="M215.004 51.4756L218.961 55.4249" stroke="white" stroke-width="1.01351" stroke-miterlimit="10" stroke-linecap="round" stroke-linejoin="round"/>
<path d="M215.004 64.8765V51.4756" stroke="white" stroke-width="1.01351" stroke-miterlimit="10" stroke-linecap="round" stroke-linejoin="round"/>
<path d="M141.937 132.968L147.523 126.976L125.917 106.834L120.331 112.827L141.937 132.968Z" fill="#D6FAE6"/>
<path d="M157.51 150.62C159.125 152.126 161.656 152.038 163.162 150.424L166.164 147.207C167.672 145.592 167.584 143.06 165.967 141.553L147.384 124.227C145.769 122.721 143.239 122.809 141.732 124.423L138.73 127.64C137.223 129.255 137.311 131.787 138.927 133.294L157.51 150.62Z" fill="#2D9187"/>
<path d="M60.5347 81.1331C63.163 55.4667 91.3345 40.7957 113.921 53.0951C142.318 68.7927 137.832 110.588 106.734 119.92C82.0022 127.107 57.619 106.769 60.5347 81.1331ZM60.5347 81.1331C57.773 106.656 82.0946 126.871 106.673 119.612C137.288 110.372 141.733 68.9364 113.859 53.3723C91.3961 41.0524 63.3067 55.6104 60.5861 81.092L60.5347 81.1331Z" fill="#2D9187"/>
<rect x="54.2109" y="42.6934" width="84.6378" height="84.6336" rx="42.3168" fill="#F6F6F6" fill-opacity="0.64"/>
<path d="M91.9952 127.087C83.6737 126.19 75.805 122.846 69.3841 117.477C62.9632 112.109 58.2785 104.956 55.9224 96.9252C53.5662 88.894 53.6445 80.3445 56.1472 72.3578C58.65 64.3711 63.4648 57.3058 69.9829 52.0555C76.501 46.8051 84.4296 43.6054 92.7662 42.8611C101.103 42.1167 109.473 43.8611 116.818 47.8736C124.163 51.8861 130.154 57.9865 134.032 65.4035C137.91 72.8205 139.502 81.2209 138.606 89.5425C137.394 100.698 131.805 110.917 123.066 117.956C114.327 124.995 103.153 128.279 91.9952 127.087ZM92.5188 122.272C99.8882 123.072 107.329 121.669 113.901 118.239C120.472 114.81 125.879 109.508 129.437 103.006C132.995 96.5027 134.545 89.0907 133.89 81.7071C133.235 74.3234 130.405 67.3 125.758 61.525C121.11 55.7501 114.855 51.4832 107.782 49.264C100.709 47.0448 93.1375 46.9731 86.0241 49.0579C78.9107 51.1427 72.5754 55.2904 67.8196 60.9763C63.0638 66.6622 60.1011 73.6308 59.3064 81.0007C58.2525 90.875 61.1568 100.764 67.3826 108.501C73.6083 116.237 82.6476 121.19 92.5188 122.272Z" fill="#38A993"/>
<path d="M133.223 72.5197C131.751 68.2419 129.545 64.2535 126.703 60.7336C120.645 53.2604 112.008 48.3273 102.493 46.9068C92.9787 45.4862 83.277 47.6811 75.3004 53.059C67.3239 58.4369 61.6511 66.6076 59.4002 75.9606C57.1492 85.3137 58.4834 95.1707 63.1398 103.589C67.7962 112.007 75.437 118.376 84.5562 121.439C93.6754 124.503 103.611 124.04 112.406 120.141C121.201 116.242 128.216 109.191 132.069 100.376C135.922 91.5611 136.334 81.6228 133.223 72.5197ZM132.555 88.9462C131.667 97.2905 127.912 105.068 121.93 110.954C115.948 116.839 108.111 120.468 99.753 121.222C91.3953 121.975 83.035 119.806 76.0973 115.085C69.1597 110.364 64.0741 103.383 61.7076 95.3324C59.3412 87.2815 59.8403 78.659 63.1198 70.9348C66.3994 63.2107 72.2565 56.863 79.6925 52.9741C87.1285 49.0851 95.6832 47.8956 103.898 49.6082C112.113 51.3209 119.48 55.8297 124.742 62.366C130.739 69.8338 133.537 79.3711 132.524 88.8948L132.555 88.9462ZM133.223 72.5197C131.751 68.2419 129.545 64.2535 126.703 60.7336C120.645 53.2604 112.008 48.3273 102.493 46.9068C92.9787 45.4862 83.277 47.6811 75.3004 53.059C67.3239 58.4369 61.6511 66.6076 59.4002 75.9606C57.1492 85.3137 58.4834 95.1707 63.1398 103.589C67.7962 112.007 75.437 118.376 84.5562 121.439C93.6754 124.503 103.611 124.04 112.406 120.141C121.201 116.242 128.216 109.191 132.069 100.376C135.922 91.5611 136.334 81.6228 133.223 72.5197ZM132.555 88.9462C131.667 97.2905 127.912 105.068 121.93 110.954C115.948 116.839 108.111 120.468 99.753 121.222C91.3953 121.975 83.035 119.806 76.0973 115.085C69.1597 110.364 64.0741 103.383 61.7076 95.3324C59.3412 87.2815 59.8403 78.659 63.1198 70.9348C66.3994 63.2107 72.2565 56.863 79.6925 52.9741C87.1285 49.0851 95.6832 47.8956 103.898 49.6082C112.113 51.3209 119.48 55.8297 124.742 62.366C130.739 69.8338 133.537 79.3711 132.524 88.8948L132.555 88.9462ZM137.812 71.0105C135.291 63.6186 130.831 57.0399 124.896 51.963C118.962 46.886 111.772 43.4974 104.079 42.1517C96.3863 40.806 88.473 41.5527 81.1676 44.3137C73.8622 47.0747 67.4331 51.7484 62.5532 57.8459C57.6733 63.9433 54.5219 71.2402 53.4289 78.9731C52.3358 86.7059 53.3413 94.5904 56.34 101.802C59.3388 109.013 64.2205 115.285 70.4745 119.963C76.7285 124.64 84.1247 127.551 91.8893 128.39C99.1721 129.175 106.535 128.111 113.298 125.297C120.061 122.483 126.006 118.01 130.583 112.291C135.16 106.572 138.221 99.792 139.485 92.5768C140.748 85.3616 140.173 77.9444 137.812 71.0105ZM137.381 89.4903C136.301 99.5517 131.545 108.86 124.024 115.631C116.503 122.401 106.748 126.156 96.6287 126.176C86.5096 126.195 76.7394 122.478 69.1923 115.738C61.6452 108.997 56.8526 99.7069 55.7339 89.6498C54.6151 79.5927 57.2489 69.4766 63.1302 61.242C69.0114 53.0074 77.7258 47.2342 87.6019 45.0297C97.4781 42.8251 107.82 44.3446 116.645 49.2966C125.47 54.2486 132.155 62.2844 135.42 71.8626C137.329 77.5017 137.981 83.4904 137.329 89.4082L137.381 89.4903ZM126.703 60.8158C120.628 53.3523 111.977 48.436 102.456 47.0365C92.9355 45.6369 83.2357 47.8557 75.2699 53.2552C67.3042 58.6547 61.6508 66.843 59.4247 76.2053C57.1986 85.5675 58.5614 95.4241 63.2442 103.831C67.9271 112.238 75.5901 118.585 84.7221 121.621C93.8541 124.657 103.792 124.16 112.576 120.23C121.36 116.299 128.353 109.22 132.175 100.389C135.996 91.5568 136.37 81.6135 133.223 72.5197C131.742 68.2397 129.525 64.2512 126.672 60.7336L126.703 60.8158ZM132.555 88.977C131.667 97.3213 127.912 105.099 121.93 110.985C115.948 116.87 108.111 120.499 99.753 121.252C91.3953 122.006 83.035 119.837 76.0973 115.116C69.1597 110.395 64.0741 103.414 61.7076 95.3632C59.3412 87.3123 59.8403 78.6898 63.1198 70.9656C66.3994 63.2414 72.2565 56.8938 79.6925 53.0049C87.1285 49.1159 95.6832 47.9264 103.898 49.639C112.113 51.3517 119.48 55.8605 124.742 62.3968C130.731 69.8567 133.528 79.3813 132.524 88.8948L132.555 88.977Z" fill="#38A993"/>
<path d="M72.241 102.53C69.9114 99.4287 68.254 95.8762 67.3746 92.0987C66.9012 90.1845 66.6226 88.2273 66.5431 86.257C66.4716 84.2615 66.5954 82.2637 66.9126 80.2922C67.5864 76.3217 69.087 72.5372 71.317 69.1838C73.505 65.8806 76.2905 63.0151 79.5303 60.7344C77.0338 63.645 74.836 66.7989 72.9699 70.1488C72.0874 71.7971 71.3389 73.5137 70.7318 75.2821C70.1055 77.0212 69.6448 78.8155 69.3561 80.6412C68.7565 84.2899 68.7254 88.0093 69.2637 91.6675C69.818 95.3943 70.8176 99.041 72.241 102.53Z" fill="white" fill-opacity="0.4"/>
<path d="M123.982 76.4521C125.377 80.0719 126.003 83.9424 125.82 87.8172C125.747 89.8071 125.475 91.7846 125.009 93.7205C124.529 95.6579 123.865 97.5452 123.028 99.3569C121.29 102.987 118.814 106.214 115.759 108.833C112.729 111.41 109.248 113.405 105.492 114.716C108.689 112.597 111.664 110.162 114.373 107.447C115.672 106.106 116.863 104.664 117.935 103.135C119.011 101.631 119.943 100.03 120.718 98.3507C122.291 95.0013 123.33 91.4264 123.798 87.7556C124.315 84.0091 124.377 80.2136 123.982 76.4521Z" fill="white" fill-opacity="0.4"/>
<path d="M78.54 92.5V77.6H83.42C84.9667 77.6 86.3067 77.9133 87.44 78.54C88.5867 79.1533 89.4733 80.02 90.1 81.14C90.7267 82.26 91.04 83.56 91.04 85.04C91.04 86.5067 90.7267 87.8067 90.1 88.94C89.4733 90.06 88.5867 90.9333 87.44 91.56C86.3067 92.1867 84.9667 92.5 83.42 92.5H78.54ZM80.9 90.4H83.46C84.5133 90.4 85.4267 90.18 86.2 89.74C86.9867 89.3 87.5933 88.68 88.02 87.88C88.4467 87.08 88.66 86.1333 88.66 85.04C88.66 83.9467 88.44 83.0067 88 82.22C87.5733 81.42 86.9733 80.8 86.2 80.36C85.4267 79.92 84.5133 79.7 83.46 79.7H80.9V90.4ZM93.3642 92.5V77.6H98.7842C99.7842 77.6 100.664 77.7867 101.424 78.16C102.198 78.52 102.798 79.0533 103.224 79.76C103.651 80.4533 103.864 81.2867 103.864 82.26C103.864 83.22 103.644 84.0467 103.204 84.74C102.778 85.4333 102.184 85.9667 101.424 86.34C100.664 86.7133 99.7842 86.9 98.7842 86.9H95.7242V92.5H93.3642ZM95.7242 84.8H98.8442C99.3776 84.8 99.8442 84.6933 100.244 84.48C100.644 84.2667 100.958 83.9733 101.184 83.6C101.411 83.2133 101.524 82.76 101.524 82.24C101.524 81.72 101.411 81.2733 101.184 80.9C100.958 80.5133 100.644 80.22 100.244 80.02C99.8442 79.8067 99.3776 79.7 98.8442 79.7H95.7242V84.8ZM111.514 92.74C110.581 92.74 109.714 92.5667 108.914 92.22C108.114 91.86 107.434 91.3733 106.874 90.76C106.314 90.1467 105.901 89.44 105.634 88.64L107.634 87.8C107.994 88.72 108.521 89.4267 109.214 89.92C109.907 90.4133 110.707 90.66 111.614 90.66C112.147 90.66 112.614 90.58 113.014 90.42C113.414 90.2467 113.721 90.0067 113.934 89.7C114.161 89.3933 114.274 89.04 114.274 88.64C114.274 88.0933 114.121 87.66 113.814 87.34C113.507 87.02 113.054 86.7667 112.454 86.58L109.654 85.7C108.534 85.3533 107.681 84.8267 107.094 84.12C106.507 83.4 106.214 82.56 106.214 81.6C106.214 80.76 106.421 80.0267 106.834 79.4C107.247 78.76 107.814 78.26 108.534 77.9C109.267 77.54 110.101 77.36 111.034 77.36C111.927 77.36 112.741 77.52 113.474 77.84C114.207 78.1467 114.834 78.5733 115.354 79.12C115.887 79.6667 116.274 80.3 116.514 81.02L114.554 81.88C114.261 81.0933 113.801 80.4867 113.174 80.06C112.561 79.6333 111.847 79.42 111.034 79.42C110.541 79.42 110.107 79.5067 109.734 79.68C109.361 79.84 109.067 80.08 108.854 80.4C108.654 80.7067 108.554 81.0667 108.554 81.48C108.554 81.96 108.707 82.3867 109.014 82.76C109.321 83.1333 109.787 83.4133 110.414 83.6L113.014 84.42C114.201 84.78 115.094 85.3 115.694 85.98C116.294 86.6467 116.594 87.48 116.594 88.48C116.594 89.3067 116.374 90.04 115.934 90.68C115.507 91.32 114.914 91.8267 114.154 92.2C113.394 92.56 112.514 92.74 111.514 92.74Z" fill="#165D95"/>
<defs>
<filter id="filter0_d_1338_24875" x="0" y="5.5" width="264.488" height="71.3242" filterUnits="userSpaceOnUse" color-interpolation-filters="sRGB">
<feFlood flood-opacity="0" result="BackgroundImageFix"/>
<feColorMatrix in="SourceAlpha" type="matrix" values="0 0 0 0 0 0 0 0 0 0 0 0 0 0 0 0 0 0 127 0" result="hardAlpha"/>
<feMorphology radius="10" operator="erode" in="SourceAlpha" result="effect1_dropShadow_1338_24875"/>
<feOffset dy="12"/>
<feGaussianBlur stdDeviation="12"/>
<feComposite in2="hardAlpha" operator="out"/>
<feColorMatrix type="matrix" values="0 0 0 0 0.39952 0 0 0 0 0.56714 0 0 0 0 0.775393 0 0 0 0.08 0"/>
<feBlend mode="normal" in2="BackgroundImageFix" result="effect1_dropShadow_1338_24875"/>
<feBlend mode="normal" in="SourceGraphic" in2="effect1_dropShadow_1338_24875" result="shape"/>
</filter>
<filter id="filter1_d_1338_24875" x="0" y="62.2568" width="264.488" height="71.3242" filterUnits="userSpaceOnUse" color-interpolation-filters="sRGB">
<feFlood flood-opacity="0" result="BackgroundImageFix"/>
<feColorMatrix in="SourceAlpha" type="matrix" values="0 0 0 0 0 0 0 0 0 0 0 0 0 0 0 0 0 0 127 0" result="hardAlpha"/>
<feMorphology radius="10" operator="erode" in="SourceAlpha" result="effect1_dropShadow_1338_24875"/>
<feOffset dy="12"/>
<feGaussianBlur stdDeviation="12"/>
<feComposite in2="hardAlpha" operator="out"/>
<feColorMatrix type="matrix" values="0 0 0 0 0.39952 0 0 0 0 0.56714 0 0 0 0 0.775393 0 0 0 0.08 0"/>
<feBlend mode="normal" in2="BackgroundImageFix" result="effect1_dropShadow_1338_24875"/>
<feBlend mode="normal" in="SourceGraphic" in2="effect1_dropShadow_1338_24875" result="shape"/>
</filter>
<clipPath id="clip0_1338_24875">
<rect width="16.2162" height="16.2162" fill="white" transform="translate(26.1641 21.0537)"/>
</clipPath>
</defs>
</svg>
