<svg width="276" height="193" viewBox="0 0 276 193" fill="none" xmlns="http://www.w3.org/2000/svg">
<g clip-path="url(#clip0_1330_22932)">
<rect x="0.5" width="275" height="193" rx="16" fill="url(#paint0_linear_1330_22932)"/>
<path d="M14.8906 146.711V192.988H41.6513V146.711H14.8906ZM20.0446 189.203H16.6086V185.767H20.0446V189.203ZM20.0446 182.978H16.6086V179.542H20.0446V182.978ZM20.0446 176.753H16.6086V173.317H20.0446V176.753ZM20.0446 170.528H16.6086V167.092H20.0446V170.528ZM20.0446 164.309H16.6086V160.873H20.0446V164.309ZM20.0446 158.078H16.6086V154.642H20.0446V158.078ZM16.6086 151.859V148.423H20.0446V151.859H16.6086ZM26.6704 189.203H23.2344V185.767H26.6704V189.203ZM26.6704 182.978H23.2344V179.542H26.6704V182.978ZM26.6704 176.753H23.2344V173.317H26.6704V176.753ZM26.6704 170.528H23.2344V167.092H26.6704V170.528ZM26.6704 164.309H23.2344V160.873H26.6704V164.309ZM26.6704 158.078H23.2344V154.642H26.6704V158.078ZM23.2344 151.859V148.423H26.6704V151.859H23.2344ZM33.2961 189.203H29.8601V185.767H33.2961V189.203ZM33.2961 182.978H29.8601V179.542H33.2961V182.978ZM33.2961 176.753H29.8601V173.317H33.2961V176.753ZM33.2961 170.528H29.8601V167.092H33.2961V170.528ZM33.2961 164.309H29.8601V160.873H33.2961V164.309ZM33.2961 158.078H29.8601V154.642H33.2961V158.078ZM29.8601 151.859V148.423H33.2961V151.859H29.8601ZM39.9219 189.203H36.4859V185.767H39.9219V189.203ZM39.9219 182.978H36.4859V179.542H39.9219V182.978ZM39.9219 176.753H36.4859V173.317H39.9219V176.753ZM39.9219 170.528H36.4859V167.092H39.9219V170.528ZM39.9219 164.309H36.4859V160.873H39.9219V164.309ZM39.9219 158.078H36.4859V154.642H39.9219V158.078ZM39.9219 151.859H36.4859V148.423H39.9219V151.859Z" fill="#F2F4F7"/>
<path d="M20.0234 140.245V151.859H23.2361V148.423H26.6721V151.859H29.8733V148.423H33.3093V151.859H36.5162V140.245H20.0234ZM29.8733 143.034H33.3093V146.47H29.8733V143.034ZM23.2361 143.034H26.6721V146.47H23.2361V143.034Z" fill="#F2F4F7"/>
<path d="M84.5 164.57V193.988H108.472V164.57H84.5ZM95.2318 188.737H86.5845V185.662H95.2318V188.737ZM95.2318 182.787H86.5845V179.723H95.2318V182.787ZM95.2318 176.848H86.5845V173.773H95.2318V176.848ZM95.2318 170.904H86.5845V167.835H95.2318V170.904ZM106.382 188.737H97.74V185.662H106.382V188.737ZM106.382 182.787H97.74V179.723H106.382V182.787ZM106.382 176.848H97.74V173.773H106.382V176.848ZM106.382 170.904H97.74V167.835H106.382V170.904Z" fill="#F2F4F7"/>
<path d="M110.297 176V194.274H132.058V176H110.297ZM114.477 191.193H111.688V188.415H114.477V191.193ZM114.477 186.125H111.688V183.336H114.477V186.125ZM114.477 181.062H111.688V178.279H114.477V181.062ZM119.878 191.193H117.094V188.415H119.878V191.193ZM119.878 186.125H117.094V183.336H119.878V186.125ZM119.878 181.062H117.094V178.279H119.878V181.062ZM125.284 191.193H122.495V188.415H125.284V191.193ZM125.284 186.125H122.495V183.336H125.284V186.125ZM125.284 181.062H122.495V178.279H125.284V181.062ZM130.684 191.193H127.895V188.415H130.684V191.193ZM130.684 186.125H127.895V183.336H130.684V186.125ZM130.684 181.062H127.895V178.279H130.684V181.062Z" fill="#F2F4F7"/>
<path d="M110.297 158V176.274H132.058V158H110.297ZM114.477 173.193H111.688V170.415H114.477V173.193ZM114.477 168.125H111.688V165.336H114.477V168.125ZM114.477 163.062H111.688V160.279H114.477V163.062ZM119.878 173.193H117.094V170.415H119.878V173.193ZM119.878 168.125H117.094V165.336H119.878V168.125ZM119.878 163.062H117.094V160.279H119.878V163.062ZM125.284 173.193H122.495V170.415H125.284V173.193ZM125.284 168.125H122.495V165.336H125.284V168.125ZM125.284 163.062H122.495V160.279H125.284V163.062ZM130.684 173.193H127.895V170.415H130.684V173.193ZM130.684 168.125H127.895V165.336H130.684V168.125ZM130.684 163.062H127.895V160.279H130.684V163.062Z" fill="#F2F4F7"/>
<path d="M41.5 175V193.274H63.2613V175H41.5ZM45.6805 190.193H42.8916V187.415H45.6805V190.193ZM45.6805 185.125H42.8916V182.336H45.6805V185.125ZM45.6805 180.062H42.8916V177.279H45.6805V180.062ZM51.0807 190.193H48.2976V187.415H51.0807V190.193ZM51.0807 185.125H48.2976V182.336H51.0807V185.125ZM51.0807 180.062H48.2976V177.279H51.0807V180.062ZM56.4867 190.193H53.6978V187.415H56.4867V190.193ZM56.4867 185.125H53.6978V182.336H56.4867V185.125ZM56.4867 180.062H53.6978V177.279H56.4867V180.062ZM61.8869 190.193H59.098V187.415H61.8869V190.193ZM61.8869 185.125H59.098V182.336H61.8869V185.125ZM61.8869 180.062H59.098V177.279H61.8869V180.062Z" fill="#F2F4F7"/>
<path d="M3.21836 89.134C0.215039 88.2977 -4.1336 84.8291 -1.87202 77.7393C0.389566 70.6495 9.27592 73.9362 9.27592 73.9362C9.27592 73.9362 9.27591 61.2763 17.6314 62.0326C25.9869 62.7888 31.819 72.671 31.819 72.671C31.819 72.671 36.9094 62.7961 44.9886 71.9438C53.0677 81.0915 39.8982 88.4068 30.2992 88.9085C20.7002 89.4103 9.74132 90.9591 3.21836 89.134Z" fill="white"/>
<path d="M199.834 72.7558C197.423 72.0801 193.929 69.2912 195.762 63.5932C197.595 57.8952 204.724 60.5351 204.724 60.5351C204.724 60.5351 204.724 50.3474 211.453 50.9602C218.182 51.5729 222.861 59.5158 222.861 59.5158C222.861 59.5158 226.938 51.5729 233.455 58.9088C239.972 66.2446 229.383 72.1488 221.641 72.5554C213.898 72.962 205.085 74.2219 199.834 72.7558Z" fill="white"/>
<path d="M222.557 50.1606C223.284 48.0418 224.693 43.0596 230.517 46.0432C230.517 46.0432 230.231 39.7896 237.337 41.2099C244.444 42.6301 240.321 50.447 233.501 50.8707C226.68 51.2945 221.921 52.0332 222.557 50.1606Z" fill="white"/>
<path d="M89.4694 25.0137H89.4408C89.4364 25.0007 89.4364 24.9866 89.4408 24.9736L89.4694 25.0137Z" fill="#F5F5F5"/>
<path d="M89.4564 24.9788C89.452 24.9918 89.452 25.0059 89.4564 25.0189H89.485L89.4564 24.9788ZM117.603 15.3294C117.209 15.4488 116.841 15.6433 116.521 15.902C116.521 15.902 116.99 15.902 117.666 15.902L117.603 15.3294ZM118.806 15.2549C118.525 15.2119 118.239 15.2119 117.958 15.2549L118.021 15.9478L118.811 15.9994L118.806 15.2549ZM119.189 15.3351V16.0395C119.838 16.1043 120.479 16.2347 121.102 16.4289C120.558 15.9188 119.904 15.5423 119.189 15.3294V15.3351Z" fill="#F5F5F5"/>
<path d="M85.8258 41.3635C85.3161 40.9225 82.0519 38.1451 79.1542 35.6769C79.1931 35.2737 79.1423 34.867 79.0053 34.4858C78.6102 33.4092 77.6366 32.7678 76.8292 33.0713L76.3424 33.2832L74.8993 32.0519C84.9553 28.1234 87.4521 25.9989 87.1257 24.3209C87.0921 24.1631 87.0321 24.0121 86.9482 23.8743C86.4385 22.9752 84.0104 19.5277 77.7855 21.7898L65.1181 26.3711C64.9833 26.2868 64.8437 26.2103 64.7001 26.142L62.8389 25.409C62.8104 25.2436 62.7683 25.0807 62.7129 24.9222C62.2777 23.7311 61.2068 23.0324 60.3135 23.3589C60.1417 23.4276 59.6893 23.628 59.088 23.9315L39.1821 16.0974C39.0165 16.0311 38.8394 15.998 38.661 16.0001H36.6566C36.6237 15.9997 36.5914 16.0098 36.5646 16.029C36.5378 16.0481 36.5179 16.0754 36.5076 16.1067C36.4974 16.138 36.4975 16.1718 36.5078 16.2031C36.5181 16.2344 36.5381 16.2616 36.565 16.2807L49.5989 24.298L49.2381 32.1837C48.7963 32.3456 48.3658 32.5369 47.9496 32.7563L40.8256 29.5551C40.6589 29.4845 40.4799 29.4475 40.2988 29.4463H39.1535C39.1004 29.4486 39.0495 29.4679 39.0083 29.5015C38.9672 29.5351 38.938 29.5811 38.9251 29.6326C38.9122 29.6841 38.9163 29.7384 38.9369 29.7874C38.9574 29.8364 38.9932 29.8775 39.0389 29.9044L46.4549 33.747C46.2502 33.9243 46.0726 34.1307 45.9281 34.3598C45.8559 34.4807 45.8123 34.6165 45.8004 34.7568C45.7885 34.8971 45.8087 35.0383 45.8595 35.1696C45.9102 35.301 45.9902 35.419 46.0934 35.5148C46.1966 35.6107 46.3202 35.6818 46.4549 35.7227C48.3206 36.2678 50.2415 36.602 52.1816 36.7192L55.2855 38.3284C55.4127 38.3938 55.552 38.4326 55.6948 38.4425C55.8375 38.4523 55.9808 38.433 56.1158 38.3856L56.3277 38.3055C56.3568 38.2938 56.3824 38.2751 56.4025 38.2511C56.4225 38.2271 56.4363 38.1985 56.4425 38.1678C56.4487 38.1371 56.4473 38.1054 56.4382 38.0755C56.4292 38.0455 56.4129 38.0183 56.3907 37.9962L55.0965 36.7993C59.3651 36.725 63.5992 36.0187 67.6608 34.7034L72.832 37.0227C73.0221 37.4329 73.3421 37.769 73.7425 37.979C74.0174 37.9275 74.3152 37.8817 74.5671 37.8187L84.7434 42.5317C85.0045 42.6524 85.2956 42.6922 85.5795 42.6463L86.1236 42.5604C86.1977 42.5492 86.2672 42.5177 86.3246 42.4694C86.3819 42.4212 86.4248 42.358 86.4485 42.2869C86.4722 42.2158 86.4758 42.1395 86.4589 42.0665C86.442 41.9935 86.4052 41.9266 86.3526 41.8732C86.2266 41.7357 86.0548 41.5639 85.8258 41.3635ZM59.9183 24.2751C60.0529 24.0616 60.2542 23.8986 60.491 23.8113C61.2068 23.5536 62.0658 24.1148 62.4094 25.0654C62.4381 25.1399 62.461 25.2086 62.4839 25.283C62.7072 26.1592 62.4037 27.001 61.7451 27.253C61.0866 27.505 60.176 26.9495 59.8324 25.9989C59.7171 25.7234 59.6649 25.4255 59.6797 25.1272C59.6946 24.8289 59.7761 24.5378 59.9183 24.2751ZM54.6613 31.4735C54.6509 31.5715 54.6154 31.6652 54.5582 31.7455C54.501 31.8257 54.4241 31.8899 54.3348 31.9317C54.1688 31.9947 54.0485 31.8859 54.06 31.6912L54.0943 31.3418C54.0883 31.3116 54.0883 31.2804 54.0943 31.2502C54.09 31.2372 54.09 31.2231 54.0943 31.2101C54.1173 31.1367 54.1558 31.069 54.2072 31.0117C54.2586 30.9544 54.3216 30.9088 54.3921 30.878C54.4205 30.8724 54.4496 30.8724 54.478 30.878C54.5983 30.878 54.6727 30.9753 54.6613 31.1357V31.4735ZM55.841 31.044C55.8315 31.143 55.7964 31.2379 55.7392 31.3192C55.682 31.4006 55.6045 31.4656 55.5145 31.5079C55.3485 31.5652 55.2225 31.4564 55.2397 31.2617L55.274 30.9123C55.285 30.8137 55.3213 30.7197 55.3795 30.6394C55.4378 30.5591 55.5159 30.4953 55.6062 30.4542H55.6978C55.8123 30.4542 55.881 30.5573 55.8696 30.7119L55.841 31.044ZM57.0149 30.6203C57.004 30.7189 56.9676 30.8129 56.9094 30.8932C56.8512 30.9735 56.7731 31.0373 56.6828 31.0784C56.5167 31.1357 56.4022 31.0326 56.4136 30.8379L56.448 30.4828C56.4589 30.3842 56.4953 30.2902 56.5535 30.2099C56.6117 30.1296 56.6898 30.0658 56.7801 30.0247C56.8082 30.0169 56.8379 30.0169 56.866 30.0247C56.9863 30.0247 57.0607 30.1278 57.0493 30.2824L57.0149 30.6203ZM53.8939 30.4886L52.9203 26.3138L56.4308 28.4728L56.9691 28.7992L57.5418 29.1542L53.8939 30.4886ZM58.2232 30.1621C58.2133 30.2617 58.1773 30.357 58.1191 30.4384C58.0608 30.5198 57.9822 30.5845 57.8911 30.626C57.725 30.689 57.6048 30.5745 57.6277 30.3798V30.0304C57.6386 29.9318 57.675 29.8378 57.7332 29.7575C57.7914 29.6772 57.8695 29.6133 57.9598 29.5723H58.0457C58.166 29.5723 58.2462 29.6696 58.2347 29.83L58.2232 30.1621ZM67.174 26.9208C67.164 27.0204 67.1281 27.1157 67.0698 27.1971C67.0115 27.2785 66.933 27.3432 66.8419 27.3847C66.6758 27.4477 66.5555 27.3332 66.567 27.1385L66.6014 26.7891C66.6123 26.6905 66.6487 26.5965 66.7069 26.5162C66.7651 26.4359 66.8432 26.3721 66.9335 26.331C66.9619 26.3261 66.991 26.3261 67.0194 26.331C67.1397 26.331 67.2084 26.4284 67.1969 26.5887L67.174 26.9208ZM68.3194 26.4971C68.309 26.5951 68.2735 26.6887 68.2163 26.769C68.1591 26.8492 68.0822 26.9134 67.9929 26.9552C67.8269 27.0125 67.7066 26.9094 67.7238 26.7147L67.7524 26.3654C67.7624 26.2658 67.7983 26.1705 67.8566 26.0891C67.9149 26.0077 67.9935 25.943 68.0846 25.9015C68.113 25.8962 68.1421 25.8962 68.1705 25.9015C68.2907 25.9015 68.3709 25.9989 68.3537 26.1592L68.3194 26.4971ZM69.4991 26.0676C69.4896 26.1666 69.4545 26.2614 69.3973 26.3428C69.3401 26.4241 69.2626 26.4891 69.1726 26.5314C69.0066 26.5887 68.8863 26.4799 68.8977 26.2852L68.9321 25.9359C68.9421 25.8363 68.978 25.741 69.0363 25.6596C69.0946 25.5782 69.1732 25.5135 69.2643 25.472C69.2924 25.4645 69.322 25.4645 69.3502 25.472C69.4704 25.472 69.5506 25.5751 69.5334 25.7297L69.4991 26.0676ZM70.673 25.6381C70.663 25.7377 70.6271 25.8329 70.5688 25.9143C70.5105 25.9957 70.4319 26.0604 70.3409 26.1019C70.1805 26.1592 70.0603 26.0504 70.0774 25.8557V25.5006C70.0893 25.4031 70.1261 25.3102 70.1843 25.2309C70.2425 25.1517 70.3201 25.0888 70.4096 25.0482C70.4377 25.0404 70.4674 25.0404 70.4955 25.0482C70.6157 25.0482 70.6902 25.1456 70.6787 25.3059L70.673 25.6381ZM71.8527 25.2086C71.8418 25.3072 71.8054 25.4012 71.7472 25.4815C71.6889 25.5618 71.6109 25.6256 71.5206 25.6667C71.3602 25.7354 71.24 25.6209 71.2514 25.4319L71.2858 25.0769C71.2958 24.9773 71.3317 24.882 71.39 24.8006C71.4482 24.7192 71.5268 24.6545 71.6179 24.613C71.6463 24.6074 71.6754 24.6074 71.7038 24.613C71.8241 24.613 71.8928 24.7104 71.8813 24.8707L71.8527 25.2086ZM73.1126 24.7562C73.1007 24.8537 73.0639 24.9466 73.0057 25.0258C72.9476 25.1051 72.87 25.168 72.7804 25.2086C72.6144 25.2716 72.4998 25.1628 72.5113 24.9738L72.5456 24.6187C72.5556 24.5191 72.5916 24.4239 72.6498 24.3425C72.7081 24.2611 72.7867 24.1964 72.8778 24.1549C72.9061 24.1493 72.9353 24.1493 72.9637 24.1549C73.0782 24.1549 73.1584 24.2522 73.1469 24.4126L73.1126 24.7562ZM74.2865 24.3209C74.2766 24.4205 74.2406 24.5158 74.1823 24.5972C74.1241 24.6786 74.0455 24.7433 73.9544 24.7848C73.7883 24.8478 73.6681 24.7333 73.691 24.5443V24.1892C73.7014 24.0912 73.7369 23.9976 73.794 23.9173C73.8512 23.8371 73.9282 23.7729 74.0174 23.7311H74.1147C74.235 23.7311 74.3037 23.8342 74.2923 23.9888L74.2865 24.3209ZM85.7399 22.6774C85.1171 22.4833 84.4762 22.3528 83.8272 22.288V21.5607C84.5601 21.7813 85.2297 22.174 85.78 22.706L85.7399 22.6774ZM83.4492 21.5321V22.2765L82.6589 22.225L82.5959 21.5321C82.8865 21.476 83.1842 21.4663 83.4778 21.5034L83.4492 21.5321ZM82.2466 21.6065L82.3096 22.1792C81.6338 22.1792 81.1643 22.1792 81.1643 22.1792C81.4895 21.9008 81.8673 21.6905 82.2752 21.5607L82.2466 21.6065ZM77.2988 22.9065C77.3092 22.8085 77.3447 22.7148 77.4018 22.6345C77.459 22.5543 77.536 22.4901 77.6252 22.4483C77.6535 22.4419 77.6828 22.4419 77.7111 22.4483C77.8313 22.4483 77.9115 22.5514 77.9001 22.706L77.8657 23.0611C77.8557 23.1607 77.8198 23.2559 77.7615 23.3373C77.7032 23.4187 77.6246 23.4834 77.5336 23.5249C77.3675 23.5822 77.2472 23.4791 77.2644 23.2787L77.2988 22.9065ZM76.1133 23.336C76.1233 23.2363 76.1593 23.1411 76.2175 23.0597C76.2758 22.9783 76.3544 22.9136 76.4455 22.8721C76.4739 22.8672 76.503 22.8672 76.5314 22.8721C76.6516 22.8721 76.7318 22.9694 76.7204 23.1298L76.686 23.4791C76.676 23.5787 76.6401 23.674 76.5818 23.7554C76.5235 23.8367 76.4449 23.9014 76.3539 23.943C76.1878 24.0002 76.0675 23.8914 76.0904 23.6967L76.1133 23.336ZM74.968 23.7655C74.9775 23.6664 75.0125 23.5716 75.0698 23.4903C75.127 23.4089 75.2044 23.3439 75.2944 23.3016C75.3247 23.2964 75.3557 23.2964 75.3861 23.3016C75.5006 23.3016 75.5808 23.3989 75.5693 23.5593L75.535 23.9086C75.524 24.0072 75.4876 24.1013 75.4294 24.1816C75.3712 24.2619 75.2931 24.3257 75.2028 24.3668C75.0367 24.4297 74.9222 24.3209 74.9336 24.1262L74.968 23.7655ZM78.152 36.5703C77.5049 36.8108 76.7318 36.3011 76.434 35.4249C76.2879 35.1257 76.2376 34.7886 76.2899 34.4597C76.3421 34.1308 76.4944 33.826 76.7261 33.5867C76.7962 33.5238 76.8779 33.4752 76.9666 33.4435C77.6137 33.2144 78.3868 33.7184 78.6846 34.5888C78.7776 34.8436 78.8204 35.1139 78.8106 35.3849C78.8241 35.63 78.7644 35.8737 78.6389 36.0848C78.5135 36.2959 78.328 36.4649 78.1062 36.5703H78.152Z" fill="white"/>
<path d="M117.661 15.9418C116.985 15.9418 116.516 15.9418 116.516 15.9418C116.836 15.6831 117.204 15.4886 117.598 15.3691L117.661 15.9418Z" fill="#F5F5F5"/>
<path d="M121.1 16.4744C120.477 16.2803 119.837 16.1498 119.188 16.085V15.3291C119.906 15.5554 120.561 15.9478 121.1 16.4744Z" fill="#F5F5F5"/>
<path d="M118.806 16.0169L118.016 15.9654L117.953 15.2725C118.234 15.2295 118.52 15.2295 118.801 15.2725L118.806 16.0169Z" fill="#F5F5F5"/>
<path d="M91.75 22.2412C91.8917 22.3783 92.054 22.4923 92.231 22.5791H92.2883L91.75 22.2412Z" fill="#F5F5F5"/>
<path d="M280.585 200.856C280.585 200.856 269.927 183.676 260.14 157.391H261.412C262.465 157.383 263.473 156.961 264.218 156.217C264.963 155.472 265.384 154.464 265.392 153.41V148.491H256.985C253.821 139.101 251.183 129.542 249.082 119.858H249.26C250.318 119.85 251.33 119.425 252.076 118.674C252.821 117.923 253.24 116.908 253.24 115.849V114.956H248.086C246.56 107.132 245.463 99.231 244.799 91.2876C242.13 58.7144 241.059 43.1837 240.635 35.739C241.115 35.4765 241.515 35.0895 241.793 34.6189C242.071 34.1483 242.217 33.6113 242.216 33.0647V28.7697H241.311C241.502 28.3688 241.602 27.9308 241.603 27.4869V25.5455H239.278V12.8037C239.287 12.7016 239.275 12.5988 239.242 12.5017C239.209 12.4046 239.156 12.3155 239.087 12.2399C239.018 12.1643 238.934 12.1039 238.84 12.0626C238.746 12.0213 238.645 12 238.542 12C238.44 12 238.338 12.0213 238.245 12.0626C238.151 12.1039 238.067 12.1643 237.997 12.2399C237.928 12.3155 237.876 12.4046 237.843 12.5017C237.81 12.5988 237.797 12.7016 237.806 12.8037V25.5455H235.481V27.5098C235.483 27.9537 235.583 28.3917 235.773 28.7926H234.863V33.0647C234.865 33.6091 235.013 34.1432 235.29 34.6114C235.568 35.0797 235.966 35.465 236.443 35.7276C236.025 43.1722 234.955 58.6972 232.286 91.2762C231.622 99.2234 230.525 107.128 228.999 114.956H223.845V115.849C223.845 116.912 224.267 117.932 225.019 118.684C225.771 119.436 226.79 119.858 227.853 119.858H228.031C225.931 129.543 223.291 139.102 220.122 148.491H211.687V153.41C211.695 154.464 212.116 155.472 212.861 156.217C213.606 156.961 214.614 157.383 215.667 157.391H216.944C207.157 183.676 196.5 200.856 196.5 200.856H210.118C210.118 200.776 210.118 200.696 210.118 200.615C210.118 184.913 222.843 167.034 238.545 167.034C254.248 167.034 266.978 184.913 266.978 200.615C266.978 200.696 266.978 200.776 266.978 200.856H280.585ZM238.299 60.4095H238.786C238.786 60.4095 239.003 85.8702 241.62 112.127H235.464C238.081 85.8702 238.299 60.4095 238.299 60.4095ZM229.491 148.892C231.441 141.145 232.921 133.287 233.924 125.361H243.161C244.161 133.287 245.641 141.146 247.593 148.892H229.491Z" fill="#38A993"/>
<path d="M280.585 200.856C280.585 200.856 269.927 183.676 260.14 157.391H261.412C262.465 157.383 263.473 156.961 264.218 156.217C264.963 155.472 265.384 154.464 265.392 153.41V148.491H256.985C253.821 139.101 251.183 129.542 249.082 119.858H249.26C250.318 119.85 251.33 119.425 252.076 118.674C252.821 117.923 253.24 116.908 253.24 115.849V114.956H248.086C246.56 107.132 245.463 99.231 244.799 91.2876C242.13 58.7144 241.059 43.1837 240.635 35.739C241.115 35.4765 241.515 35.0895 241.793 34.6189C242.071 34.1483 242.217 33.6113 242.216 33.0647V28.7697H241.311C241.502 28.3688 241.602 27.9308 241.603 27.4869V25.5455H239.278V12.8037C239.287 12.7016 239.275 12.5988 239.242 12.5017C239.209 12.4046 239.156 12.3155 239.087 12.2399C239.018 12.1643 238.934 12.1039 238.84 12.0626C238.746 12.0213 238.645 12 238.542 12C238.44 12 238.338 12.0213 238.245 12.0626C238.151 12.1039 238.067 12.1643 237.997 12.2399C237.928 12.3155 237.876 12.4046 237.843 12.5017C237.81 12.5988 237.797 12.7016 237.806 12.8037V25.5455H235.481V27.5098C235.483 27.9537 235.583 28.3917 235.773 28.7926H234.863V33.0647C234.865 33.6091 235.013 34.1432 235.29 34.6114C235.568 35.0797 235.966 35.465 236.443 35.7276C236.025 43.1722 234.955 58.6972 232.286 91.2762C231.622 99.2234 230.525 107.128 228.999 114.956H223.845V115.849C223.845 116.912 224.267 117.932 225.019 118.684C225.771 119.436 226.79 119.858 227.853 119.858H228.031C225.931 129.543 223.291 139.102 220.122 148.491H211.687V153.41C211.695 154.464 212.116 155.472 212.861 156.217C213.606 156.961 214.614 157.383 215.667 157.391H216.944C207.157 183.676 196.5 200.856 196.5 200.856H210.118C210.118 200.776 210.118 200.696 210.118 200.615C210.118 184.913 222.843 167.034 238.545 167.034C254.248 167.034 266.978 184.913 266.978 200.615C266.978 200.696 266.978 200.776 266.978 200.856H280.585ZM238.299 60.4095H238.786C238.786 60.4095 239.003 85.8702 241.62 112.127H235.464C238.081 85.8702 238.299 60.4095 238.299 60.4095ZM229.491 148.892C231.441 141.145 232.921 133.287 233.924 125.361H243.161C244.161 133.287 245.641 141.146 247.593 148.892H229.491Z" fill="#38A993"/>
<path opacity="0.7" d="M280.585 200.856C280.585 200.856 269.927 183.676 260.14 157.391H261.412C262.465 157.383 263.473 156.961 264.218 156.217C264.963 155.472 265.384 154.464 265.392 153.41V148.491H256.985C253.821 139.101 251.183 129.542 249.082 119.858H249.26C250.318 119.85 251.33 119.425 252.076 118.674C252.821 117.923 253.24 116.908 253.24 115.849V114.956H248.086C246.56 107.132 245.463 99.231 244.799 91.2876C242.13 58.7144 241.059 43.1837 240.635 35.739C241.115 35.4765 241.515 35.0895 241.793 34.6189C242.071 34.1483 242.217 33.6113 242.216 33.0647V28.7697H241.311C241.502 28.3688 241.602 27.9308 241.603 27.4869V25.5455H239.278V12.8037C239.287 12.7016 239.275 12.5988 239.242 12.5017C239.209 12.4046 239.156 12.3155 239.087 12.2399C239.018 12.1643 238.934 12.1039 238.84 12.0626C238.746 12.0213 238.645 12 238.542 12C238.44 12 238.338 12.0213 238.245 12.0626C238.151 12.1039 238.067 12.1643 237.997 12.2399C237.928 12.3155 237.876 12.4046 237.843 12.5017C237.81 12.5988 237.797 12.7016 237.806 12.8037V25.5455H235.481V27.5098C235.483 27.9537 235.583 28.3917 235.773 28.7926H234.863V33.0647C234.865 33.6091 235.013 34.1432 235.29 34.6114C235.568 35.0797 235.966 35.465 236.443 35.7276C236.025 43.1722 234.955 58.6972 232.286 91.2762C231.622 99.2234 230.525 107.128 228.999 114.956H223.845V115.849C223.845 116.912 224.267 117.932 225.019 118.684C225.771 119.436 226.79 119.858 227.853 119.858H228.031C225.931 129.543 223.291 139.102 220.122 148.491H211.687V153.41C211.695 154.464 212.116 155.472 212.861 156.217C213.606 156.961 214.614 157.383 215.667 157.391H216.944C207.157 183.676 196.5 200.856 196.5 200.856H210.118C210.118 200.776 210.118 200.696 210.118 200.615C210.118 184.913 222.843 167.034 238.545 167.034C254.248 167.034 266.978 184.913 266.978 200.615C266.978 200.696 266.978 200.776 266.978 200.856H280.585ZM238.299 60.4095H238.786C238.786 60.4095 239.003 85.8702 241.62 112.127H235.464C238.081 85.8702 238.299 60.4095 238.299 60.4095ZM229.491 148.892C231.441 141.145 232.921 133.287 233.924 125.361H243.161C244.161 133.287 245.641 141.146 247.593 148.892H229.491Z" fill="white"/>
<path d="M152.5 166V197.789H174.261V166H152.5ZM162.081 195.509H153.892V187.653H162.081V195.509ZM162.081 185.379H153.892V177.516H162.081V185.379ZM162.081 175.243H153.892V167.392H162.081V175.243ZM172.87 195.509H164.681V187.653H172.87V195.509ZM172.87 185.379H164.681V177.516H172.87V185.379ZM172.87 175.243H164.681V167.392H172.87V175.243Z" fill="#F2F4F7"/>
<path d="M111.279 135.509C109.111 136.093 108.607 136.565 107.984 138.596C107.361 136.565 106.855 136.093 104.688 135.509C106.855 134.926 107.361 134.452 107.984 132.423C108.607 134.452 109.111 134.926 111.279 135.509Z" fill="white"/>
<path d="M128.697 122.133H91.4362V118.415H129.408L128.697 122.133ZM90.305 122.133H77.1494C77.1494 119.124 74.7252 116.684 71.7344 116.684V113.079C74.1933 113.594 76.0414 115.788 76.0414 118.415H90.305V122.133Z" fill="#D7E3F2"/>
<path d="M91.5093 118.43H90.2734V122.133H91.5093V118.43Z" fill="#CBDAEE"/>
<path d="M154.539 112.958V77.8081C151.533 77.8081 149.097 75.3592 149.097 72.3379H75.9427C75.9427 75.3592 73.5051 77.8081 70.5 77.8081V112.958C73.5051 112.958 75.9427 115.407 75.9427 118.429H149.097C149.097 115.407 151.533 112.958 154.539 112.958Z" fill="white"/>
<path d="M88.7993 88.801H90.5122V80.8234H93.5693V79.3359H85.7422V80.8234H88.7993V88.801Z" fill="#38A993"/>
<path d="M97.2806 79.335H95.6328V88.8H97.2806V79.335Z" fill="#38A993"/>
<path d="M104.949 89.2125C106.548 89.2125 107.91 88.6504 108.813 87.608L107.646 86.5107C106.937 87.2791 106.061 87.6488 105.046 87.6488C103.031 87.6488 101.571 86.2495 101.571 84.2742C101.571 82.2989 103.031 80.8996 105.046 80.8996C106.061 80.8996 106.937 81.2704 107.646 82.0249L108.813 80.9416C107.91 79.8991 106.548 79.3359 104.963 79.3359C101.975 79.3359 99.75 81.408 99.75 84.2742C99.75 87.1416 101.975 89.2125 104.949 89.2125Z" fill="#38A993"/>
<path d="M117.464 88.8H119.518L115.301 83.567L119.275 79.335H117.302L112.624 84.1888V79.335H110.867V88.8H112.624V86.3795L114.125 84.8381L117.464 88.8Z" fill="#38A993"/>
<path d="M123.32 87.3264V84.7173H127.829V83.2703H123.32V80.8094H128.403V79.3359H121.586V88.801H128.589V87.3264H123.32Z" fill="#38A993"/>
<path d="M133.284 88.8H134.997V80.8222H138.054V79.335H130.227V80.8222H133.284V88.8Z" fill="#38A993"/>
<path d="M70.4922 96.208V112.941C73.4973 112.941 75.9349 115.399 75.9349 118.43H149.089C149.089 115.399 151.526 112.941 154.531 112.941V96.208H70.4922Z" fill="#38A993"/>
<path d="M179.238 150.941L125.289 140.605L128.889 121.939H131.739L128.466 138.909L179.667 148.719L179.238 150.941ZM141.314 72.2848H138.465L139.407 67.4014L142.154 67.9274L141.314 72.2848Z" fill="#D7E3F2"/>
<path d="M131.633 122.132H129L129.663 118.429H132.296L131.633 122.132Z" fill="#769BD3"/>
<path d="M136.781 96.2063H133.945L135.325 89.0099H138.162L136.781 96.2063ZM138.212 88.7463V79.2813H137.193L138.525 72.3379H141.36L138.212 88.7463Z" fill="white"/>
<path fill-rule="evenodd" clip-rule="evenodd" d="M138.013 89.2125H135.18L137.045 79.3359H138.063V88.9449L138.013 89.2125Z" fill="white"/>
<mask id="mask0_1330_22932" style="mask-type:luminance" maskUnits="userSpaceOnUse" x="135" y="79" width="4" height="11">
<path d="M138.066 89.0827H135.227L137.096 79.3721H138.116V88.8196L138.066 89.0827Z" fill="white"/>
</mask>
<g mask="url(#mask0_1330_22932)">
<path d="M133.218 88.949H134.973V80.9913H138.105V79.5078H130.086V80.9913H133.218V88.949Z" fill="#38A993"/>
</g>
<path d="M132.379 118.43H129.406L133.848 96.208H136.821L132.379 118.43Z" fill="#2D9187"/>
<path d="M182.135 149.293L128.586 138.957L142.598 65.7539L196.146 76.0901L182.135 149.293Z" fill="#2D9187"/>
<path d="M149.121 72.7482L147.196 72.3398L146.297 77.5053L147.166 77.6897L147.425 76.199L148.481 76.4229C149.71 76.6844 150.595 76.1443 150.793 75.0083C150.992 73.8648 150.351 73.0086 149.121 72.7482ZM148.583 75.6031L147.566 75.3877L147.924 73.3354L148.94 73.5508C149.702 73.7127 150.03 74.1735 149.917 74.8229C149.804 75.4724 149.344 75.7649 148.583 75.6031Z" fill="white"/>
<path d="M155.223 79.1438L156.184 79.3356L154.903 73.7553L154 73.5742L150.828 78.266L151.774 78.4545L152.481 77.3636L154.95 77.8569L155.223 79.1438ZM152.929 76.6776L154.269 74.6172L154.785 77.0483L152.929 76.6776Z" fill="white"/>
<path d="M158.847 79.6778C160.205 79.9476 160.98 79.3753 161.132 78.5596C161.482 76.6872 158.413 76.8131 158.615 75.7277C158.688 75.3416 159.056 75.0972 159.821 75.2485C160.253 75.3331 160.716 75.5616 161.112 75.9192L161.539 75.241C161.162 74.8634 160.569 74.5799 159.975 74.4624C158.616 74.1937 157.849 74.7671 157.694 75.5901C157.341 77.4848 160.42 77.3452 160.214 78.4454C160.144 78.8241 159.765 79.0441 158.993 78.8918C158.385 78.7712 157.798 78.4136 157.463 78.0074L157.008 78.6802C157.35 79.1256 158.075 79.5255 158.847 79.6778Z" fill="white"/>
<path d="M163.792 80.9122C165.151 81.1819 165.926 80.6096 166.078 79.794C166.427 77.9216 163.359 78.0474 163.561 76.9621C163.633 76.5759 164.002 76.3316 164.767 76.4828C165.198 76.5675 165.662 76.796 166.057 77.1535L166.485 76.4754C166.108 76.0978 165.515 75.8142 164.92 75.6968C163.561 75.4281 162.795 76.0015 162.641 76.8245C162.287 78.7181 165.365 78.5796 165.16 79.6798C165.089 80.0585 164.71 80.2785 163.939 80.1262C163.331 80.0056 162.744 79.648 162.409 79.2418L161.953 79.9146C162.296 80.36 163.021 80.7599 163.792 80.9122Z" fill="white"/>
<path d="M170.393 76.8319L168.293 76.4541L167.312 81.2223L168.26 81.3924L168.543 80.0166L169.695 80.2234C171.036 80.4647 172.001 79.9662 172.217 78.9178C172.434 77.8615 171.734 77.0723 170.393 76.8319ZM169.805 79.4667L168.697 79.267L169.087 77.3739L170.195 77.5727C171.026 77.7221 171.385 78.1464 171.262 78.7457C171.138 79.3451 170.636 79.6151 169.805 79.4667Z" fill="white"/>
<path d="M175.029 82.978C176.657 83.2808 178.078 82.3998 178.377 80.8888C178.678 79.3778 177.696 78.0494 176.067 77.7465C174.439 77.4437 173.016 78.3311 172.717 79.8357C172.419 81.3394 173.4 82.6752 175.029 82.978ZM175.193 82.1497C174.135 81.9524 173.495 81.0576 173.701 80.0183C173.908 78.9789 174.844 78.3775 175.903 78.5748C176.961 78.7711 177.601 79.6669 177.394 80.7052C177.188 81.7445 176.252 82.346 175.193 82.1497Z" fill="white"/>
<path d="M183.61 84.6856L182.759 82.709C183.503 82.5671 184.006 82.0556 184.154 81.2526C184.371 80.0779 183.673 79.2001 182.331 78.9329L180.23 78.5127L179.25 83.8155L180.198 84.0047L180.484 82.4593L181.636 82.6892C181.701 82.7024 181.767 82.7156 181.833 82.7211L182.589 84.4821L183.61 84.6856ZM183.199 81.0613C183.077 81.7278 182.573 82.0358 181.741 81.8697L180.634 81.6486L181.025 79.5356L182.133 79.7567C182.964 79.9228 183.323 80.3947 183.199 81.0613Z" fill="white"/>
<path d="M185.904 84.9223L186.863 85.0959L187.697 80.994L189.407 81.3049L189.563 80.5396L185.186 79.7461L185.031 80.5104L186.74 80.8203L185.904 84.9223Z" fill="white"/>
<path d="M164.617 122.985C166.309 121.868 167.882 120.137 169.193 117.955C170.166 118.571 171.019 119.247 171.756 119.959C169.691 121.539 167.241 122.596 164.617 122.985ZM149.108 115.611C150.057 115.223 151.101 114.913 152.233 114.701C152.64 117.211 153.459 119.402 154.616 121.064C152.324 119.732 150.44 117.844 149.108 115.611ZM160.117 92.475C158.425 93.5908 156.853 95.3211 155.542 97.5009C154.571 96.8854 153.713 96.2127 152.977 95.5009C155.042 93.9208 157.492 92.8642 160.117 92.475ZM175.624 99.8489C174.677 100.236 173.632 100.545 172.5 100.757C172.092 98.2476 171.274 96.0583 170.118 94.3957C172.41 95.7283 174.293 97.6162 175.624 99.8489ZM172.42 108.93C172.813 106.566 172.888 104.276 172.683 102.162C173.987 101.918 175.192 101.549 176.288 101.085C177.57 103.759 178.092 106.811 177.641 109.932L172.42 108.93ZM172.149 110.34L177.37 111.341C176.63 114.406 175.012 117.049 172.83 119.057C171.983 118.22 171.002 117.432 169.88 116.721C170.856 114.834 171.638 112.679 172.149 110.34ZM161.976 113.562L162.937 108.57L170.74 110.068C170.26 112.25 169.544 114.259 168.659 116.012C166.704 114.947 164.443 114.103 161.976 113.562ZM160.168 122.959L161.705 114.971C164.029 115.483 166.155 116.269 167.98 117.252C165.837 120.862 162.964 123.083 160.168 122.959ZM160.294 114.7L158.757 122.689C156.113 121.768 154.27 118.641 153.619 114.496C155.679 114.259 157.945 114.314 160.294 114.7ZM153.724 106.801L161.525 108.298L160.565 113.29C158.073 112.88 155.66 112.826 153.449 113.092C153.277 111.135 153.358 109.005 153.724 106.801ZM152.313 106.53C151.921 108.894 151.845 111.184 152.052 113.297C150.745 113.542 149.543 113.913 148.447 114.377C147.164 111.703 146.642 108.65 147.094 105.527L152.313 106.53ZM152.585 105.12L147.365 104.119C148.103 101.054 149.72 98.4115 151.904 96.4041C152.75 97.2397 153.732 98.0276 154.852 98.7384C153.877 100.625 153.097 102.781 152.585 105.12ZM162.758 101.898L161.798 106.89L153.995 105.391C154.473 103.21 155.188 101.201 156.074 99.448C158.03 100.512 160.291 101.357 162.758 101.898ZM164.566 92.5004L163.029 100.489C160.704 99.9769 158.581 99.1879 156.754 98.2053C158.897 94.5966 161.769 92.3766 164.566 92.5004ZM164.44 100.76L165.976 92.7711C168.62 93.6923 170.463 96.8177 171.115 100.963C169.053 101.199 166.79 101.144 164.44 100.76ZM164.169 102.168C166.661 102.58 169.074 102.634 171.285 102.368C171.457 104.324 171.375 106.455 171.011 108.659L163.208 107.16L164.169 102.168ZM165.554 91.1624C156.411 89.4068 147.539 95.4099 145.782 104.545C144.024 113.68 150.034 122.542 159.179 124.297C168.324 126.053 177.194 120.05 178.951 110.915C180.709 101.779 174.699 92.9181 165.554 91.1624Z" fill="white"/>
<path d="M183.353 143.944C178.859 140.377 177.152 135.09 176.151 128.586C175.417 123.802 175.451 121.11 174.47 119.347C175.126 118.693 175.727 117.985 176.27 117.227C178.686 120.097 176.387 126.029 184.613 137.479L183.353 143.944ZM173.55 118.21C173.364 118.048 173.159 117.895 172.932 117.749C171.907 117.092 171.071 116.292 170.414 115.522C170.604 115.114 170.784 114.696 170.954 114.267C171.994 114.792 173.307 115.391 174.863 116.158C174.958 116.205 175.049 116.253 175.136 116.303C174.659 116.983 174.128 117.62 173.55 118.21ZM169.431 114.219C168.881 113.391 168.592 112.767 168.547 112.668C168.804 112.974 169.187 113.268 169.688 113.575C169.605 113.792 169.519 114.006 169.431 114.219Z" fill="#227879"/>
<path d="M174.527 119.254C174.283 118.826 173.978 118.453 173.585 118.118C174.177 117.529 174.721 116.893 175.21 116.214C175.689 116.479 176.066 116.784 176.37 117.137C175.815 117.893 175.199 118.601 174.527 119.254ZM170.374 115.436C169.974 114.979 169.639 114.533 169.367 114.134C169.458 113.922 169.545 113.708 169.63 113.492C170 113.713 170.434 113.939 170.927 114.183C170.753 114.611 170.568 115.029 170.374 115.436Z" fill="white"/>
<path d="M265.362 225.66L200.963 132.598C200.963 132.598 201.897 111.174 192.235 97.0303L189.127 113.357C188.841 114.862 187.125 115.614 185.838 114.784C183.885 113.525 181.05 111.965 178 111.174C173.985 110.132 168.96 108.677 168.223 111.07C167.648 112.938 170.102 113.722 174.779 116.062C179.454 118.402 175.1 124.311 184.442 137.512L201.897 235.714L265.362 225.66Z" fill="#F26764"/>
<path d="M145.327 131.91C142.753 132.649 142.153 133.249 141.413 135.819C140.674 133.249 140.074 132.649 137.5 131.91C140.074 131.17 140.674 130.572 141.413 128C142.153 130.572 142.753 131.17 145.327 131.91Z" fill="white"/>
<path d="M81.5 103C78.8696 103.757 78.2566 104.37 77.5007 107C76.7442 104.37 76.1311 103.757 73.5 103C76.1311 102.244 76.7442 101.631 77.5007 99C78.2566 101.631 78.8696 102.244 81.5 103Z" fill="white"/>
</g>
<rect x="1" y="0.5" width="274" height="192" rx="15.5" stroke="#F2F4F7"/>
<defs>
<linearGradient id="paint0_linear_1330_22932" x1="138.5" y1="-49.5" x2="138.5" y2="286" gradientUnits="userSpaceOnUse">
<stop stop-color="#D1F0EA"/>
<stop offset="0.79" stop-color="white" stop-opacity="0"/>
</linearGradient>
<clipPath id="clip0_1330_22932">
<rect x="0.5" width="275" height="193" rx="16" fill="white"/>
</clipPath>
</defs>
</svg>
