<svg width="236" height="187" viewBox="0 0 236 187" fill="none" xmlns="http://www.w3.org/2000/svg">
<mask id="mask0_1330_23024" style="mask-type:luminance" maskUnits="userSpaceOnUse" x="6" y="0" width="230" height="181">
<path d="M218.07 21.3926C235.669 36.4245 250.25 160.152 207.928 171.084C165.607 182.017 56.0761 188.368 34.7054 161.56C13.3347 134.754 -16.7764 41.0695 33.7764 10.2539C68.1096 -10.6737 200.471 6.36051 218.07 21.3926Z" fill="white"/>
</mask>
<g mask="url(#mask0_1330_23024)">
<path d="M174.975 23.1309H164.646C148.317 23.1309 134.957 36.4907 134.957 52.8195V101.718C134.957 118.047 148.317 131.407 164.646 131.407H174.975C191.304 131.407 204.664 118.047 204.664 101.718V52.8195C204.664 36.4907 191.304 23.1309 174.975 23.1309Z" fill="#E6F1FC"/>
<path d="M149.761 85.671C160.908 84.4161 167.978 85.671 182.706 85.671C191.945 85.671 199.967 86.5599 204.664 87.2225V101.718C204.664 118.047 191.304 131.407 174.975 131.407H164.646C148.317 131.407 134.957 118.047 134.957 101.718V87.337C140.318 86.7339 145.771 86.12 149.761 85.671Z" fill="#299FD1"/>
<path d="M135.763 108.576C135.423 107.153 135.187 105.692 135.062 104.199C137.143 103.015 140.45 101.771 144.01 100.613C150.159 98.6123 157.814 102.362 157.814 102.362C157.814 102.362 161.453 100.355 166.724 99.7272C171.994 99.0999 177.641 102.362 177.641 102.362C177.641 102.362 181.406 100.606 189.814 99.2253C195.751 98.2506 201.687 99.4657 204.664 100.264V101.719C204.664 107.114 203.205 112.184 200.663 116.556C200.045 116.557 199.302 116.578 197.971 117.171C194.841 118.565 191.169 121.354 183.64 121.104C176.11 120.853 169.359 116.92 160.449 116.042C153.648 115.37 141.365 111.264 135.763 108.576Z" fill="#F4FEFC"/>
<path d="M134.996 110.965C135.389 111.054 135.801 111.149 136.228 111.244C140.117 112.103 141.215 111.682 147.741 111.431C154.266 111.18 152.582 117.651 169.234 114.274C176.817 112.735 174.718 117.16 185.385 118.54C192.29 119.433 199.32 115.437 201.625 116.4C197.066 126.965 186.534 134.408 174.346 134.408H164.016C149.828 134.408 137.884 124.321 134.996 110.965Z" fill="#299FD1"/>
<path d="M204.663 52.8188C204.663 36.4899 191.303 23.1301 174.974 23.1301H164.645C148.316 23.1301 134.956 36.4899 134.956 52.8188V101.717C134.956 118.046 148.316 131.407 164.645 131.407H174.974C191.303 131.407 204.663 118.046 204.663 101.717V52.8188ZM211.648 52.8188V101.717C211.648 121.94 195.197 138.392 174.974 138.392H164.645C144.422 138.392 127.971 121.94 127.971 101.717V52.8188C127.971 32.5965 144.422 16.1445 164.645 16.1445H174.974C195.197 16.1445 211.648 32.5965 211.648 52.8188Z" fill="#B5CCEA"/>
<path d="M170.823 81.1514C173.667 81.4861 174.337 81.4025 177.014 79.8129C179.691 78.2233 180.109 80.1475 182.452 79.9803C184.794 79.8129 186.635 77.6378 191.139 77.2669C195.643 76.8961 198.766 80.8168 201.108 80.6495C202.128 80.5767 203.465 80.8212 204.664 81.2119V83.7876C203.431 83.7586 202.037 83.6613 200.941 83.6613C198.348 83.6613 196.423 83.3267 192.993 82.9362C189.563 82.5458 187.555 82.3227 184.878 82.8246C182.201 83.3267 180.779 82.8246 180.779 82.8246C180.779 82.8246 163.126 82.5737 164.548 81.4025C165.971 80.2312 167.978 80.8168 170.823 81.1514Z" fill="#F4FEFC"/>
<path d="M153.081 93.87C153.081 93.87 159.356 93.2843 164.794 94.2047C170.232 95.1249 167.638 94.7066 176.004 94.7066C184.371 94.7066 185.207 94.4505 189.641 94.2439C194.075 94.0373 195.163 91.5275 192.737 90.189C190.31 88.8504 184.538 89.7706 181.61 88.3484C178.682 86.9261 175.837 83.1978 167.555 84.3508C159.272 85.5038 158.603 87.7628 154.002 88.3484C149.4 88.9339 147.611 89.436 142.858 90.189C138.106 90.9418 134.851 91.1929 136.312 92.8661C137.772 94.5393 149.824 94.0373 153.081 93.87Z" fill="#F4FEFC"/>
<path d="M164.655 23.1309H169.062C152.734 23.1309 139.374 36.4907 139.374 52.8195V101.718C139.374 118.047 152.734 131.407 169.062 131.407H164.655C148.326 131.407 134.966 118.047 134.966 101.718V52.8195C134.966 36.4907 148.326 23.1309 164.655 23.1309Z" fill="#F4FEFC"/>
<path d="M191.603 40.3713C191.678 39.717 191.104 39.1709 190.455 39.2846C189.887 39.3842 189.274 39.6644 188.949 40.3607C188.455 41.419 189.021 42.576 189.941 43.0566C190.556 43.3776 191.301 42.9837 191.381 42.2949L191.603 40.3713Z" fill="#F4FEFC"/>
<path d="M172.677 77.9894C172.677 77.9894 170.355 77.1085 166.911 77.9894C163.468 78.8702 157.291 77.3667 152.852 77.5979C148.414 77.8293 140.246 78.2533 139.685 77.9212C139.125 77.5891 142.408 76.0676 145.691 75.9875C148.974 75.9074 152.818 75.7473 155.701 75.5871C158.584 75.427 160.906 75.347 164.589 75.5871C168.273 75.8274 172.117 76.3557 173.478 76.8522C174.839 77.3488 174.51 78.3427 172.677 77.9894Z" fill="#9BC6EA"/>
</g>
<mask id="mask1_1330_23024" style="mask-type:luminance" maskUnits="userSpaceOnUse" x="134" y="23" width="71" height="109">
<path d="M174.967 23.1318H164.638C148.309 23.1318 134.949 36.4916 134.949 52.8205V101.719C134.949 118.048 148.309 131.408 164.638 131.408H174.967C191.296 131.408 204.656 118.048 204.656 101.719V52.8205C204.656 36.4916 191.296 23.1318 174.967 23.1318Z" fill="white"/>
</mask>
<g mask="url(#mask1_1330_23024)">
<path d="M181.979 101.984C181.979 101.984 169.848 104.913 169.43 106.334C169.011 107.757 169.011 108.008 169.43 108.259C169.848 108.51 185.911 110.016 188.17 110.351C190.429 110.685 198.711 110.769 198.711 110.769C198.711 110.769 191.014 101.148 181.979 101.984Z" fill="#7A9DD2"/>
<path d="M208.919 99.7236C208.919 99.7236 165.331 89.6842 164.077 88.7639C162.822 87.8437 161.985 87.007 160.897 85.8359C159.81 84.6645 152.95 73.8723 152.448 73.705C151.946 73.5376 150.356 73.0357 150.272 73.3704C150.189 73.705 153.284 86.2541 154.706 87.6763C156.129 89.0986 156.714 89.7679 161.65 92.6961C166.586 95.6242 210.341 117.125 210.341 117.125C210.341 117.125 214.022 104.576 208.919 99.7236Z" fill="#9ABCE9"/>
<path d="M207.411 114.95C207.411 114.95 189.148 119.801 188.73 121.224C188.311 122.646 188.838 124.153 189.256 124.404C189.675 124.655 198.71 126.328 207.746 127.499C210.01 127.793 218.203 126.328 218.203 126.328C218.203 126.328 216.446 114.113 207.411 114.95Z" fill="#7A9DD2"/>
</g>
<mask id="mask2_1330_23024" style="mask-type:luminance" maskUnits="userSpaceOnUse" x="0" y="0" width="232" height="196">
<path d="M218.067 21.3926C235.667 36.4245 241.821 172.568 199.499 183.5C157.177 194.432 13.5 204.5 12.5 181C2.5 83.5 -16.7792 41.0695 33.7735 10.2539C68.1067 -10.6737 200.469 6.36051 218.067 21.3926Z" fill="white"/>
</mask>
<g mask="url(#mask2_1330_23024)">
<path d="M64.7515 152.758H150.935C157.674 152.758 162.662 160.585 161.15 168.786L161.084 169.146C158.444 183.47 145.955 193.867 131.389 193.867H66.1545L64.7515 152.758Z" fill="#38A993"/>
<path d="M28.8305 55.5249L28.5155 31.6907L72.1565 31.2754C78.5744 31.8591 83.895 36.1048 85.5502 44.5331C86.3137 48.4204 86.9344 53.0131 87.1453 58.1844C87.3776 63.9207 86.1696 103.118 89.5801 109.192C96.2435 121.061 119.607 170.857 116.115 186.026C113.173 198.805 85.0884 206.55 74.048 204.473L29.4179 204.679C29.4179 204.679 28.1525 136.309 20.3423 117.239C13.4426 100.391 25.8472 63.817 28.8305 55.5249Z" fill="#60CBAC"/>
<path d="M103.356 189.099C103.356 189.099 178.672 188.456 178.672 206.567C178.672 221.932 171.056 221.611 137.902 225.934C108.988 229.704 47.5041 200.55 47.5041 200.55C47.5041 200.55 50.8879 185 103.356 189.099Z" fill="#2D9187"/>
<path d="M29.9031 102.239H61.9431C62.4917 102.239 62.9375 101.795 62.9375 101.245C62.9375 100.696 62.4917 100.25 61.9431 100.25H29.9031C29.3531 100.25 28.9086 100.696 28.9086 101.245C28.9086 101.795 29.3531 102.239 29.9031 102.239Z" fill="#2D9187"/>
<path d="M18.6027 183.31C18.6027 183.31 -5.57507 85.3733 2.26572 61.0962C10.1052 36.8191 26.0685 27.7119 32.3208 32.5043C38.5718 37.2967 21.1456 93.4356 27.8104 105.305C34.4739 117.175 64.0818 178.7 60.5899 193.869C57.098 209.038 29.0571 207.843 25.2729 202.923C21.49 198.004 18.6027 183.31 18.6027 183.31Z" fill="#2D9187"/>
<path d="M42.4877 196.928C42.4877 196.928 124.428 199.03 141.139 199.731C157.85 200.433 150.325 225.934 137.904 225.934C126.75 225.934 87.3795 226.27 64.0506 226.27C45.1868 226.27 28.1263 229.877 28.1263 201.834C28.1263 185.567 42.4877 196.928 42.4877 196.928Z" fill="#2D9187"/>
<path d="M11.5138 165.165C11.2829 158.381 16.7183 152.758 23.5046 152.758H130.951C137.689 152.758 142.678 160.585 141.166 168.786L141.1 169.146C138.459 183.47 125.97 193.867 111.406 193.867H24.0893C17.622 193.867 12.3187 188.741 12.0985 182.278L11.5138 165.165Z" fill="#38A993"/>
<path d="M130.951 152.758H115.701C122.441 152.758 127.429 160.585 125.917 168.786L125.852 169.146C123.211 183.47 110.721 193.867 96.1569 193.867H111.406C125.97 193.867 138.459 183.47 141.1 169.146L141.166 168.786C142.678 160.585 137.689 152.758 130.951 152.758Z" fill="#83E5BF"/>
<path d="M71.5775 31.2803C72.7535 32.4637 75.0147 35.1784 76.1012 39.4254C77.6083 45.3131 79.3876 58.3891 77.8819 59.2792C76.3762 60.1691 42.1458 59.2792 42.1458 59.2792C42.1458 59.2792 41.8027 43.9438 40.9124 39.1516C40.2997 35.8485 38.6459 33.0336 37.6768 31.6029L71.5775 31.2803Z" fill="white"/>
</g>
</svg>
